<svg width="29" height="28" viewBox="0 0 29 28" fill="none" xmlns="http://www.w3.org/2000/svg">
<g clip-path="url(#clip0_2220_5124)">
<path d="M11.125 21.3333V22.5C11.125 23.4283 11.4806 24.3185 12.1135 24.9749C12.7464 25.6313 13.6049 26 14.5 26C15.3951 26 16.2536 25.6313 16.8865 24.9749C17.5194 24.3185 17.875 23.4283 17.875 22.5V21.3333M12.25 7.33333C12.25 6.71449 12.4871 6.121 12.909 5.68342C13.331 5.24583 13.9033 5 14.5 5C15.0967 5 15.669 5.24583 16.091 5.68342C16.5129 6.121 16.75 6.71449 16.75 7.33333C18.042 7.96687 19.1433 8.95305 19.9361 10.1862C20.7288 11.4193 21.183 12.8529 21.25 14.3333V17.8333C21.3347 18.5587 21.5824 19.2532 21.9732 19.8611C22.364 20.4691 22.8869 20.9733 23.5 21.3333H5.5C6.11306 20.9733 6.63604 20.4691 7.02684 19.8611C7.41764 19.2532 7.66534 18.5587 7.75 17.8333V14.3333C7.81701 12.8529 8.27121 11.4193 9.06394 10.1862C9.85667 8.95305 10.958 7.96687 12.25 7.33333Z" stroke="#757D89" stroke-width="1.8" stroke-linecap="round" stroke-linejoin="round"/>
</g>
<defs>
<clipPath id="clip0_2220_5124">
<rect width="28" height="28" fill="white" transform="translate(0.5)"/>
</clipPath>
</defs>
</svg>
