<svg width="20" height="20" viewBox="0 0 20 20" fill="none" xmlns="http://www.w3.org/2000/svg">
<path d="M2 6.87489C1.99983 5.84481 2.40826 4.85127 3.1435 4.12004C3.87979 3.38778 4.88184 2.98109 5.92541 3.00068L5.93715 3.00089L5.9489 3.00083C7.21632 2.99401 8.4187 3.53883 9.25324 4.48527L10 5.33217L10.7468 4.48527C11.5813 3.53883 12.7837 2.99401 14.0512 3.00083L14.0629 3.00089L14.0746 3.00068C15.1182 2.98109 16.1202 3.38778 16.8565 4.12004C17.5918 4.85127 18.0002 5.84463 18 6.87472C18 8.87891 16.8163 10.7632 15.0184 12.6139C14.1342 13.524 13.1428 14.3847 12.1512 15.2128C11.8727 15.4453 11.5917 15.6773 11.3129 15.9074C10.8639 16.2782 10.4207 16.644 10.0029 17C9.56075 16.6203 9.09017 16.2305 8.6139 15.8361C8.36052 15.6263 8.10552 15.4151 7.85233 15.2033C6.86029 14.3737 5.86844 13.5139 4.9835 12.6051C3.18421 10.7574 2 8.87984 2 6.87489Z" stroke="#BBBBBB" stroke-width="1.8"/>
</svg>
