<svg width="62" height="62" viewBox="0 0 62 62" fill="none" xmlns="http://www.w3.org/2000/svg">
<path d="M14.0557 17.4446V41.1668L22.189 35.0668C22.775 34.6256 23.4889 34.3876 24.2223 34.389H37.7779C39.6495 34.389 41.1668 32.8717 41.1668 31.0001V17.4446C41.1668 15.5729 39.6495 14.0557 37.7779 14.0557H17.4446C15.5729 14.0557 14.0557 15.5729 14.0557 17.4446ZM17.4446 34.389V17.4446H37.7779V31.0001H23.0938C22.3603 30.9981 21.6462 31.2362 21.0605 31.6779L17.4446 34.389Z" fill="#757D89"/>
<path d="M47.9445 47.9445V25.9168C47.9445 24.0451 46.4273 22.5279 44.5557 22.5279V41.1668L40.9397 38.4557C40.354 38.0139 39.64 37.7759 38.9064 37.7779H22.5279C22.5279 39.6495 24.0451 41.1668 25.9168 41.1668H37.7779C38.5114 41.1654 39.2253 41.4034 39.8112 41.8446L47.9445 47.9445Z" fill="#757D89"/>
</svg>
