<svg width="24" height="24" viewBox="0 0 24 24" fill="none" xmlns="http://www.w3.org/2000/svg">
<path d="M6.4 17.6H7.54L15.36 9.78002L14.22 8.64002L6.4 16.46V17.6ZM4.8 19.2V15.8L15.36 5.26002C15.52 5.11335 15.6967 5.00002 15.89 4.92002C16.0833 4.84002 16.2867 4.80002 16.5 4.80002C16.7133 4.80002 16.92 4.84002 17.12 4.92002C17.32 5.00002 17.4933 5.12002 17.64 5.28002L18.74 6.40002C18.9 6.54668 19.0167 6.72002 19.09 6.92002C19.1633 7.12002 19.2 7.32002 19.2 7.52002C19.2 7.73335 19.1633 7.93668 19.09 8.13002C19.0167 8.32335 18.9 8.50002 18.74 8.66002L8.2 19.2H4.8ZM14.78 9.22002L14.22 8.64002L15.36 9.78002L14.78 9.22002Z" fill="#757D89"/>
</svg>
