<svg width="16" height="16" viewBox="0 0 16 16" fill="none" xmlns="http://www.w3.org/2000/svg">
<g clip-path="url(#clip0_2304_38479)">
<path d="M8.00153 2.80005C10.8617 2.80005 13.2438 4.41938 15.112 7.56938L15.2586 7.82205L15.2886 7.88872L15.3086 7.94405L15.318 7.98072L15.3273 8.03538L15.3346 8.10205V8.17538L15.3253 8.24938C15.3209 8.27414 15.3151 8.29862 15.308 8.32272L15.282 8.39472L15.258 8.44472L15.2473 8.46472C13.4045 11.6887 11.047 13.3847 8.21021 13.464L8.00153 13.4667C5.07068 13.4667 2.64321 11.7674 0.755759 8.46405C0.698229 8.36334 0.667969 8.24936 0.667969 8.13338C0.667969 8.0174 0.698229 7.90343 0.755759 7.80272C2.64321 4.49938 5.07068 2.80005 8.00153 2.80005ZM8.00153 6.13338C7.47106 6.13338 6.96232 6.3441 6.58723 6.71917C6.21213 7.09424 6.00141 7.60295 6.00141 8.13338C6.00141 8.66382 6.21213 9.17252 6.58723 9.5476C6.96232 9.92267 7.47106 10.1334 8.00153 10.1334C8.53199 10.1334 9.04073 9.92267 9.41583 9.5476C9.79092 9.17252 10.0016 8.66382 10.0016 8.13338C10.0016 7.60295 9.79092 7.09424 9.41583 6.71917C9.04073 6.3441 8.53199 6.13338 8.00153 6.13338Z" fill="#BBBBBB"/>
<path d="M7.33203 8.00004C7.33203 8.17685 7.40227 8.34642 7.52729 8.47145C7.65232 8.59647 7.82189 8.66671 7.9987 8.66671C8.17551 8.66671 8.34508 8.59647 8.4701 8.47145C8.59513 8.34642 8.66536 8.17685 8.66536 8.00004C8.66536 7.82323 8.59513 7.65366 8.4701 7.52864C8.34508 7.40361 8.17551 7.33337 7.9987 7.33337C7.82189 7.33337 7.65232 7.40361 7.52729 7.52864C7.40227 7.65366 7.33203 7.82323 7.33203 8.00004Z" fill="#BBBBBB"/>
</g>
<defs>
<clipPath id="clip0_2304_38479">
<rect width="16" height="16" fill="white"/>
</clipPath>
</defs>
</svg>
