<svg width="48" height="49" viewBox="0 0 48 49" fill="none" xmlns="http://www.w3.org/2000/svg">
<path d="M10.6382 29.5088L8.96733 35.7464L2.86032 35.8756C1.03523 32.4905 0 28.6174 0 24.5016C0 20.5217 0.96791 16.7686 2.6836 13.4639H2.68491L8.12186 14.4607L10.5036 19.865C10.0051 21.3182 9.73339 22.8783 9.73339 24.5016C9.73357 26.2635 10.0527 27.9515 10.6382 29.5088Z" fill="#FBBB00"/>
<path d="M47.5812 20.0176C47.8568 21.4694 48.0006 22.9688 48.0006 24.5012C48.0006 26.2196 47.8199 27.8957 47.4757 29.5125C46.3074 35.0142 43.2545 39.8183 39.0254 43.218L39.0241 43.2167L32.1759 42.8673L31.2067 36.8169C34.0129 35.1711 36.206 32.5956 37.3612 29.5125H24.5273V20.0176H37.5485H47.5812Z" fill="#518EF8"/>
<path d="M39.0281 43.216L39.0294 43.2173C34.9164 46.5233 29.6915 48.5014 24.0038 48.5014C14.8637 48.5014 6.91708 43.3927 2.86328 35.8746L10.6412 29.5078C12.668 34.9172 17.8862 38.7679 24.0038 38.7679C26.6333 38.7679 29.0968 38.0571 31.2107 36.8162L39.0281 43.216Z" fill="#28B446"/>
<path d="M39.3205 6.02545L31.5453 12.3909C29.3576 11.0234 26.7715 10.2335 24.0009 10.2335C17.7448 10.2335 12.429 14.2608 10.5037 19.8642L2.68491 13.4631H2.68359C6.67805 5.76172 14.7249 0.5 24.0009 0.5C29.8244 0.5 35.1639 2.57439 39.3205 6.02545Z" fill="#F14336"/>
</svg>
