<svg width="20" height="20" viewBox="0 0 20 20" fill="none" xmlns="http://www.w3.org/2000/svg">
<path d="M4 7.76778C3.99987 7.03201 4.30619 6.32234 4.85763 5.80003C5.40984 5.27698 6.16138 4.9865 6.94406 5.00048L6.95286 5.00063L6.96168 5.00059C7.91224 4.99572 8.81403 5.38488 9.43993 6.0609L10 6.66583L10.5601 6.0609C11.186 5.38488 12.0877 4.99572 13.0384 5.00059L13.0472 5.00063L13.0559 5.00048C13.8386 4.9865 14.5902 5.27698 15.1423 5.80003C15.6938 6.32234 16.0002 7.03188 16 7.76766C16 9.19922 15.1123 10.5451 13.7638 11.8671C13.1006 12.5172 12.3571 13.1319 11.6134 13.7234C11.4045 13.8895 11.1937 14.0552 10.9847 14.2196C10.6479 14.4844 10.3155 14.7457 10.0022 15C9.67057 14.7288 9.31763 14.4504 8.96043 14.1686C8.77039 14.0188 8.57914 13.8679 8.38924 13.7166C7.64522 13.1241 6.90133 12.51 6.23763 11.8608C4.88816 10.541 4 9.19989 4 7.76778Z" stroke="#BBBBBB" stroke-width="1.8"/>
</svg>
