<svg width="20" height="20" viewBox="0 0 20 20" fill="none" xmlns="http://www.w3.org/2000/svg">
<path d="M3.9 7.60043V7.60027C3.89987 6.8903 4.19909 6.20031 4.74645 5.68851C5.29538 5.17526 6.04707 4.8866 6.83413 4.90048L6.84434 4.90066L6.85455 4.90061C7.81403 4.89575 8.71911 5.28378 9.34354 5.94957L10 6.64949L10.6565 5.94957C11.2809 5.28378 12.186 4.89575 13.1454 4.90061L13.1557 4.90066L13.1659 4.90048C13.9529 4.8866 14.7046 5.17526 15.2536 5.68851C15.8009 6.20031 16.1001 6.8903 16.1 7.60027V7.60043C16.1 9.00271 15.2175 10.3445 13.8246 11.6924C13.1426 12.3525 12.3765 12.9779 11.6073 13.5818C11.3922 13.7507 11.1748 13.9194 10.9588 14.0871C10.6324 14.3404 10.3093 14.5912 10.0025 14.8359C9.67647 14.5738 9.3321 14.3057 8.98474 14.0352C8.78837 13.8823 8.59105 13.7287 8.39554 13.575C7.62576 12.9698 6.85939 12.3451 6.17671 11.686C4.78283 10.3402 3.9 9.00311 3.9 7.60043Z" fill="#BBBBBB" stroke="#BBBBBB" stroke-width="1.8"/>
</svg>
