<svg width="29" height="28" viewBox="0 0 29 28" fill="none" xmlns="http://www.w3.org/2000/svg">
<g clip-path="url(#clip0_2220_4996)">
<path d="M11.1667 24V17.3333C11.1667 16.744 11.4008 16.1787 11.8175 15.762C12.2343 15.3452 12.7995 15.1111 13.3889 15.1111H15.6111C16.2005 15.1111 16.7657 15.3452 17.1825 15.762C17.5992 16.1787 17.8333 16.744 17.8333 17.3333V24M6.72222 14H4.5L14.5 4L24.5 14H22.2778L22.2778 21.7778C22.2778 22.3671 22.0437 22.9324 21.6269 23.3491C21.2102 23.7659 20.6449 24 20.0556 24H8.94444C8.35507 24 7.78984 23.7659 7.3731 23.3491C6.95635 22.9324 6.72222 22.3671 6.72222 21.7778L6.72222 14Z" stroke="#757D89" stroke-width="1.8" stroke-linecap="round" stroke-linejoin="round"/>
</g>
<defs>
<clipPath id="clip0_2220_4996">
<rect width="28" height="28" fill="white" transform="translate(0.5)"/>
</clipPath>
</defs>
</svg>
