<svg width="29" height="28" viewBox="0 0 29 28" fill="none" xmlns="http://www.w3.org/2000/svg">
<g clip-path="url(#clip0_2220_5268)">
<path d="M15.6667 5.83317H25M15.6667 10.4998H21.5M15.6667 17.4998H25M15.6667 22.1665H21.5M4 5.83317C4 5.52375 4.12292 5.22701 4.34171 5.00821C4.5605 4.78942 4.85725 4.6665 5.16667 4.6665H9.83333C10.1428 4.6665 10.4395 4.78942 10.6583 5.00821C10.8771 5.22701 11 5.52375 11 5.83317V10.4998C11 10.8093 10.8771 11.106 10.6583 11.3248C10.4395 11.5436 10.1428 11.6665 9.83333 11.6665H5.16667C4.85725 11.6665 4.5605 11.5436 4.34171 11.3248C4.12292 11.106 4 10.8093 4 10.4998V5.83317ZM4 17.4998C4 17.1904 4.12292 16.8937 4.34171 16.6749C4.5605 16.4561 4.85725 16.3332 5.16667 16.3332H9.83333C10.1428 16.3332 10.4395 16.4561 10.6583 16.6749C10.8771 16.8937 11 17.1904 11 17.4998V22.1665C11 22.4759 10.8771 22.7727 10.6583 22.9915C10.4395 23.2103 10.1428 23.3332 9.83333 23.3332H5.16667C4.85725 23.3332 4.5605 23.2103 4.34171 22.9915C4.12292 22.7727 4 22.4759 4 22.1665V17.4998Z" stroke="#757D89" stroke-width="1.8" stroke-linecap="round" stroke-linejoin="round"/>
</g>
<defs>
<clipPath id="clip0_2220_5268">
<rect width="28" height="28" fill="white" transform="translate(0.5)"/>
</clipPath>
</defs>
</svg>
