<svg width="29" height="28" viewBox="0 0 29 28" fill="none" xmlns="http://www.w3.org/2000/svg">
<g clip-path="url(#clip0_2218_2841)">
<path d="M18.1251 9.33317V6.99984C18.1251 6.381 17.8792 5.78751 17.4417 5.34992C17.0041 4.91234 16.4106 4.6665 15.7917 4.6665H7.62508C7.00624 4.6665 6.41275 4.91234 5.97517 5.34992C5.53758 5.78751 5.29175 6.381 5.29175 6.99984V20.9998C5.29175 21.6187 5.53758 22.2122 5.97517 22.6498C6.41275 23.0873 7.00624 23.3332 7.62508 23.3332H15.7917C16.4106 23.3332 17.0041 23.0873 17.4417 22.6498C17.8792 22.2122 18.1251 21.6187 18.1251 20.9998V18.6665M25.1251 13.9998H9.95841M9.95841 13.9998L13.4584 10.4998M9.95841 13.9998L13.4584 17.4998" stroke="#757D89" stroke-width="2" stroke-linecap="round" stroke-linejoin="round"/>
</g>
<defs>
<clipPath id="clip0_2218_2841">
<rect width="28" height="28" fill="white" transform="translate(0.625)"/>
</clipPath>
</defs>
</svg>
