<svg width="48" height="48" viewBox="0 0 48 48" fill="none" xmlns="http://www.w3.org/2000/svg">
<rect width="48" height="48" rx="24" fill="black" fill-opacity="0.8"/>
<g clip-path="url(#clip0_2898_8051)">
<path d="M16 21V18.5C16 17.837 16.2634 17.2011 16.7322 16.7322C17.2011 16.2634 17.837 16 18.5 16H21" stroke="white" stroke-width="2" stroke-linecap="square" stroke-linejoin="round"/>
<path d="M16 27V29.5C16 30.163 16.2634 30.7989 16.7322 31.2678C17.2011 31.7366 17.837 32 18.5 32H21" stroke="white" stroke-width="2" stroke-linecap="square" stroke-linejoin="round"/>
<path d="M27 16H29.5C30.163 16 30.7989 16.2634 31.2678 16.7322C31.7366 17.2011 32 17.837 32 18.5V21" stroke="white" stroke-width="2" stroke-linecap="square" stroke-linejoin="round"/>
<path d="M27 32H29.5C30.163 32 30.7989 31.7366 31.2678 31.2678C31.7366 30.7989 32 30.163 32 29.5V27" stroke="white" stroke-width="2" stroke-linecap="square" stroke-linejoin="round"/>
</g>
<defs>
<clipPath id="clip0_2898_8051">
<rect width="24" height="24" fill="white" transform="translate(12 12)"/>
</clipPath>
</defs>
</svg>
