<svg width="29" height="28" viewBox="0 0 29 28" fill="none" xmlns="http://www.w3.org/2000/svg">
<path d="M9.83333 10.4998H19.1667M9.83333 15.1665H16.8333M21.5 4.6665C22.4283 4.6665 23.3185 5.03525 23.9749 5.69163C24.6312 6.34801 25 7.23825 25 8.1665V17.4998C25 18.4281 24.6312 19.3183 23.9749 19.9747C23.3185 20.6311 22.4283 20.9998 21.5 20.9998H15.6667L9.83333 24.4998V20.9998H7.5C6.57174 20.9998 5.6815 20.6311 5.02513 19.9747C4.36875 19.3183 4 18.4281 4 17.4998V8.1665C4 7.23825 4.36875 6.34801 5.02513 5.69163C5.6815 5.03525 6.57174 4.6665 7.5 4.6665H21.5Z" stroke="#757D89" stroke-width="1.8" stroke-linecap="round" stroke-linejoin="round"/>
</svg>
