<svg width="24" height="24" viewBox="0 0 24 24" fill="none" xmlns="http://www.w3.org/2000/svg">
<path d="M10.2858 17.1429C10.2858 16.1961 11.0533 15.4286 12.0001 15.4286C12.9469 15.4286 13.7144 16.1961 13.7144 17.1429C13.7144 18.0897 12.9469 18.8572 12.0001 18.8572C11.0533 18.8572 10.2858 18.0897 10.2858 17.1429Z" fill="#C5C5C5"/>
<path d="M10.2858 12C10.2858 11.0533 11.0533 10.2857 12.0001 10.2857C12.9469 10.2857 13.7144 11.0533 13.7144 12C13.7144 12.9468 12.9469 13.7143 12.0001 13.7143C11.0533 13.7143 10.2858 12.9468 10.2858 12Z" fill="#C5C5C5"/>
<path d="M10.2858 6.85717C10.2858 5.91039 11.0533 5.14288 12.0001 5.14288C12.9469 5.14288 13.7144 5.91039 13.7144 6.85717C13.7144 7.80394 12.9469 8.57145 12.0001 8.57145C11.0533 8.57145 10.2858 7.80394 10.2858 6.85717Z" fill="#C5C5C5"/>
</svg>
