<svg width="24" height="24" viewBox="0 0 24 24" fill="none" xmlns="http://www.w3.org/2000/svg">
<path d="M13.7143 6.85735C13.7143 7.80413 12.9468 8.57164 12 8.57164C11.0533 8.57164 10.2858 7.80413 10.2858 6.85735C10.2858 5.91058 11.0533 5.14307 12 5.14307C12.9468 5.14307 13.7143 5.91058 13.7143 6.85735Z" fill="#757D89"/>
<path d="M13.7144 12.0002C13.7144 12.947 12.9468 13.7145 12.0001 13.7145C11.0533 13.7145 10.2858 12.947 10.2858 12.0002C10.2858 11.0534 11.0533 10.2859 12.0001 10.2859C12.9468 10.2859 13.7144 11.0534 13.7144 12.0002Z" fill="#757D89"/>
<path d="M13.7144 17.1431C13.7144 18.0898 12.9468 18.8574 12.0001 18.8574C11.0533 18.8574 10.2858 18.0899 10.2858 17.1431C10.2858 16.1963 11.0533 15.4288 12.0001 15.4288C12.9468 15.4288 13.7144 16.1963 13.7144 17.1431Z" fill="#757D89"/>
</svg>
