<svg width="24" height="24" viewBox="0 0 24 24" fill="none" xmlns="http://www.w3.org/2000/svg">
<path d="M19.6 21.0005L13.3 14.7005C12.8 15.1005 12.225 15.4172 11.575 15.6505C10.925 15.8838 10.2333 16.0005 9.5 16.0005C7.68333 16.0005 6.14583 15.3713 4.8875 14.113C3.62917 12.8547 3 11.3172 3 9.50049C3 7.68382 3.62917 6.14632 4.8875 4.88799C6.14583 3.62966 7.68333 3.00049 9.5 3.00049C11.3167 3.00049 12.8542 3.62966 14.1125 4.88799C15.3708 6.14632 16 7.68382 16 9.50049C16 10.2338 15.8833 10.9255 15.65 11.5755C15.4167 12.2255 15.1 12.8005 14.7 13.3005L21 19.6005L19.6 21.0005ZM9.5 14.0005C10.75 14.0005 11.8125 13.563 12.6875 12.688C13.5625 11.813 14 10.7505 14 9.50049C14 8.25049 13.5625 7.18799 12.6875 6.31299C11.8125 5.43799 10.75 5.00049 9.5 5.00049C8.25 5.00049 7.1875 5.43799 6.3125 6.31299C5.4375 7.18799 5 8.25049 5 9.50049C5 10.7505 5.4375 11.813 6.3125 12.688C7.1875 13.563 8.25 14.0005 9.5 14.0005Z" fill="white"/>
</svg>
