<svg width="24" height="24" viewBox="0 0 24 24" fill="none" xmlns="http://www.w3.org/2000/svg">
<g clip-path="url(#clip0_2214_39398)">
<g clip-path="url(#clip1_2214_39398)">
<circle cx="12" cy="12" r="12" fill="#BFCADA"/>
<path d="M8 9C8 10.0609 8.42143 11.0783 9.17157 11.8284C9.92172 12.5786 10.9391 13 12 13C13.0609 13 14.0783 12.5786 14.8284 11.8284C15.5786 11.0783 16 10.0609 16 9C16 7.93913 15.5786 6.92172 14.8284 6.17157C14.0783 5.42143 13.0609 5 12 5C10.9391 5 9.92172 5.42143 9.17157 6.17157C8.42143 6.92172 8 7.93913 8 9Z" stroke="white" stroke-width="0.8" stroke-linecap="round" stroke-linejoin="round"/>
<path d="M6 32V20C6 18.9391 6.42143 17.9217 7.17157 17.1716C7.92172 16.4214 8.93913 16 10 16H14C15.0609 16 16.0783 16.4214 16.8284 17.1716C17.5786 17.9217 18 18.9391 18 20V32" stroke="white" stroke-width="0.8" stroke-linecap="round" stroke-linejoin="round"/>
</g>
</g>
<defs>
<clipPath id="clip0_2214_39398">
<rect width="24" height="24" rx="12" fill="white"/>
</clipPath>
<clipPath id="clip1_2214_39398">
<rect width="24" height="24" rx="12" fill="white"/>
</clipPath>
</defs>
</svg>
