<svg width="61" height="60" viewBox="0 0 61 60" fill="none" xmlns="http://www.w3.org/2000/svg">
<path d="M17.1667 20.8333C17.1667 22.8224 17.9569 24.73 19.3634 26.1366C20.77 27.5431 22.6776 28.3333 24.6667 28.3333C26.6559 28.3333 28.5635 27.5431 29.97 26.1366C31.3766 24.73 32.1667 22.8224 32.1667 20.8333C32.1667 18.8441 31.3766 16.9365 29.97 15.53C28.5635 14.1234 26.6559 13.3333 24.6667 13.3333C22.6776 13.3333 20.77 14.1234 19.3634 15.53C17.9569 16.9365 17.1667 18.8441 17.1667 20.8333Z" stroke="#757D89" stroke-width="4" stroke-linecap="round" stroke-linejoin="round"/>
<path d="M13.8333 46.6667V42.7778C13.8333 40.715 14.5942 38.7367 15.9486 37.2781C17.303 35.8194 19.14 35 21.0555 35H28.2777C30.1932 35 32.0302 35.8194 33.3846 37.2781C34.739 38.7367 35.4999 40.715 35.4999 42.7778V46.6667" stroke="#757D89" stroke-width="4" stroke-linecap="round" stroke-linejoin="round"/>
<path d="M37.1667 13.3333C39.0738 13.7596 40.7641 14.7282 41.9712 16.0861C43.1782 17.4441 43.8334 19.1142 43.8334 20.8333C43.8334 22.5523 43.1782 24.2224 41.9712 25.5804C40.7641 26.9383 39.0738 27.9069 37.1667 28.3333" stroke="#757D89" stroke-width="4" stroke-linecap="round" stroke-linejoin="round"/>
<path d="M47.1667 46.6667V42.6781C47.1583 40.9174 46.6633 39.2096 45.7589 37.8207C44.8544 36.4319 43.5915 35.4401 42.1667 35" stroke="#757D89" stroke-width="4" stroke-linecap="round" stroke-linejoin="round"/>
</svg>
