<svg width="24" height="24" viewBox="0 0 24 24" fill="none" xmlns="http://www.w3.org/2000/svg">
<path fill-rule="evenodd" clip-rule="evenodd" d="M12.4264 0.0172273C17.7928 0.0424388 20.2023 1.79284 20.8002 2.34028C22.7775 4.05827 23.876 7.8688 23.1376 13.8871C22.4881 19.2047 18.7791 20.148 17.5348 20.4645C17.4129 20.4955 17.3147 20.5205 17.2453 20.543C16.9104 20.651 13.9462 21.393 10.0961 21.0688C9.67111 21.5622 9.10565 22.2105 8.69866 22.6499C8.57571 22.7824 8.46059 22.9132 8.35058 23.0382C7.79355 23.671 7.3674 24.1552 6.71776 23.9537C6.07307 23.7556 6.10909 22.776 6.10909 22.776L6.11269 20.3593H6.10909C0.476125 18.7746 0.558962 12.9363 0.623791 9.81729C0.685019 6.69827 1.29009 4.18432 3.00808 2.46634C6.09468 -0.364546 12.4264 0.0172273 12.4264 0.0172273Z" fill="#757D89"/>
<path d="M16.8958 18.7811C17.9533 18.5357 20.9067 17.8503 21.4521 13.4549C22.0751 8.42706 21.2215 4.9947 19.5504 3.55764C19.0462 3.10024 16.8708 1.73521 12.3291 1.7136C12.3291 1.7136 6.95186 1.36064 4.34067 3.72332C2.88921 5.15677 2.39939 7.28894 2.34536 9.89293L2.33948 10.1582C2.27853 12.8211 2.1711 17.5144 6.77538 18.7926C6.77538 18.7926 6.75737 22.4843 6.75377 22.8084C6.75377 23.0353 6.78979 23.1902 6.91944 23.2226C7.01309 23.2478 7.15355 23.1974 7.2724 23.0785C8.03235 22.3114 10.4707 19.3724 10.4707 19.3724C13.7409 19.5885 16.3413 18.9402 16.6223 18.8502C16.6869 18.8296 16.78 18.808 16.8958 18.7811Z" fill="#757D89"/>
<path d="M14.9373 9.66937C14.9454 9.83682 14.8162 9.97913 14.6488 9.98722C14.4813 9.99532 14.339 9.86613 14.3309 9.69868C14.2808 8.66129 13.7989 8.16361 12.8028 8.1107C12.6354 8.1018 12.5069 7.95888 12.5158 7.79147C12.5247 7.62406 12.6676 7.49556 12.835 7.50445C14.1458 7.57409 14.8723 8.32437 14.9373 9.66937Z" fill="white"/>
<path d="M16.1831 10.5097C16.3507 10.5135 16.4897 10.3808 16.4935 10.2132C16.5205 9.02668 16.1651 8.02491 15.4268 7.22054C14.6872 6.41472 13.667 5.96853 12.3758 5.87685C12.2085 5.86497 12.0634 5.99091 12.0515 6.15813C12.0396 6.32536 12.1656 6.47055 12.3328 6.48242C13.4765 6.56363 14.3507 6.94599 14.9795 7.63106C15.6089 8.31673 15.91 9.1657 15.8865 10.1994C15.8827 10.367 16.0155 10.5059 16.1831 10.5097Z" fill="white"/>
<path d="M18.0891 10.8271C18.0903 10.9947 17.9555 11.1316 17.7878 11.1329C17.6202 11.1341 17.4833 10.9993 17.482 10.8316C17.4682 8.98439 16.923 7.54851 15.8485 6.49786C14.7702 5.44698 13.4299 4.91596 11.8193 4.90566C11.6516 4.90459 11.5166 4.76782 11.5177 4.60017C11.5188 4.43253 11.6555 4.2975 11.8232 4.29857C13.5881 4.30986 15.0796 4.90074 16.2726 6.06344C17.4698 7.23406 18.0741 8.82573 18.0891 10.8271Z" fill="white"/>
<path d="M13.5356 13.5018C13.3087 13.7863 12.8801 13.7503 12.8801 13.7503C9.76109 12.9543 8.92551 9.79568 8.92551 9.79568C8.92551 9.79568 8.8895 9.37068 9.17403 9.14018L9.73588 8.69358C10.0168 8.47748 10.1933 7.95524 9.90876 7.44381C9.75029 7.15928 9.43334 6.65145 9.19924 6.3309C8.95073 5.99235 8.37446 5.30083 8.37086 5.29723C8.09354 4.96588 7.68295 4.89025 7.25075 5.11355C7.25075 5.11355 7.24715 5.11715 7.24355 5.11715C6.83296 5.34765 6.45119 5.6574 6.09463 6.04997L6.08742 6.05718C5.8209 6.37772 5.66603 6.69467 5.63002 7.00441C5.62281 7.04042 5.61921 7.08725 5.62281 7.14127C5.61921 7.27813 5.64082 7.41139 5.68404 7.54465L5.69845 7.55546C5.83171 8.03448 6.17026 8.83044 6.90139 10.1594C7.37681 11.0202 7.86303 11.7406 8.34565 12.3456C8.59776 12.6662 8.8859 12.9939 9.21725 13.3289L9.34691 13.4585C9.68186 13.7899 10.0096 14.078 10.3302 14.3301C10.9352 14.8128 11.652 15.299 12.5163 15.7744C13.8454 16.5055 14.6413 16.8441 15.1203 16.9773L15.1311 16.9918C15.2644 17.035 15.3977 17.053 15.5345 17.053C15.5885 17.0566 15.6354 17.053 15.6714 17.0458C15.9811 17.0098 16.2981 16.8549 16.6186 16.5884L16.6258 16.5812C17.0184 16.2246 17.3281 15.8392 17.5586 15.4322C17.5586 15.4322 17.5622 15.4286 17.5622 15.425C17.7855 14.9928 17.7099 14.5823 17.3786 14.3049C17.3786 14.3049 16.6834 13.7251 16.3449 13.4766C16.0279 13.2424 15.5165 12.9291 15.232 12.767C14.7205 12.4825 14.1983 12.659 13.9822 12.9399L13.5356 13.5018Z" fill="white"/>
</svg>
