<svg width="48" height="49" viewBox="0 0 48 49" fill="none" xmlns="http://www.w3.org/2000/svg">
<g clip-path="url(#clip0_3251_50804)">
<path d="M23.0151 48.5H25.0137C35.8637 48.5 41.2896 48.5 44.6592 45.1304C48.0288 41.7608 48 36.3368 48 25.5138V23.4863C48 12.6651 48 7.23921 44.6592 3.86961C41.3184 0.50001 35.8637 0.5 25.0137 0.5H23.0151C12.1632 0.5 6.7392 0.50001 3.3696 3.86961C-2.14577e-06 7.23921 0 12.6612 0 23.4863V25.5138C0 36.3368 -2.14577e-06 41.7608 3.3696 45.1304C6.7392 48.5 12.1632 48.5 23.0151 48.5Z" fill="#2683ED"/>
<path d="M25.7561 35.1078C14.933 35.1078 8.36474 27.5987 8.10938 15.1206H13.591C13.7619 24.2867 17.9321 28.1766 21.1289 28.9695V15.1206H26.3839V23.0291C29.4674 22.6874 32.6931 19.0892 33.7798 15.1206H38.9465C38.119 20.0032 34.6073 23.6012 32.1228 25.0854C34.6073 26.2854 38.6047 29.4265 40.1465 35.1078H34.4652C33.2652 31.31 30.3238 28.3686 26.3839 27.9692V35.1078H25.7561Z" fill="white"/>
</g>
<defs>
<clipPath id="clip0_3251_50804">
<rect width="48" height="48" fill="white" transform="translate(0 0.5)"/>
</clipPath>
</defs>
</svg>
