<svg width="24" height="24" viewBox="0 0 24 24" fill="none" xmlns="http://www.w3.org/2000/svg">
<path d="M6.64804 20.1944L7.00917 20.4085C8.52662 21.3089 10.2664 21.7852 12.0404 21.7862H12.0443C17.4925 21.7862 21.9269 17.3529 21.9292 11.9042C21.93 9.26359 20.9029 6.78068 19.0366 4.91293C17.1701 3.04524 14.6885 2.01602 12.048 2.01494C6.59541 2.01494 2.16121 6.4476 2.15904 11.8961C2.1583 13.7633 2.68069 15.5816 3.67028 17.1551L3.90555 17.5289L2.90667 21.1753L6.64804 20.1944ZM0.0512228 24L1.73849 17.8392C0.697812 16.0362 0.150273 13.9908 0.151071 11.8953C0.153694 5.34004 5.48864 0.0067997 12.0443 0.0067997C15.2256 0.00816826 18.2115 1.24638 20.4571 3.4935C22.7024 5.7408 23.9384 8.72797 23.9373 11.905C23.9345 18.4599 18.5989 23.7941 12.0443 23.7941C12.0438 23.7941 12.0446 23.7941 12.0443 23.7941H12.0392C10.0489 23.7933 8.09302 23.2942 6.35597 22.3468L0.0512228 24Z" fill="white"/>
<path d="M0.553171 11.8859C0.553171 13.9242 1.08591 15.893 2.10507 17.6302L0.460522 23.583L6.55229 21.9848C8.21999 22.9113 10.1193 23.3746 12.0418 23.3746C18.3652 23.3746 23.5305 18.2325 23.5305 11.9091C23.5305 8.82845 22.326 5.95629 20.1719 3.779C17.9946 1.62488 15.1224 0.420428 12.0418 0.420428C5.71843 0.420428 0.553171 5.56253 0.553171 11.8859Z" fill="#757D89"/>
<path d="M0.142847 11.8766C0.142847 13.988 0.694693 16.0275 1.75039 17.827L0.046875 23.9932L6.35709 22.3377C8.0846 23.2974 10.052 23.7773 12.0435 23.7773C18.5936 23.7773 23.9441 18.4508 23.9441 11.9006C23.9441 8.70953 22.6965 5.73438 20.4651 3.47901C18.2097 1.24765 15.2346 0 12.0435 0C5.49333 0 0.142847 5.32649 0.142847 11.8766ZM3.90978 17.515L3.67028 17.1551C2.68655 15.5715 2.15828 13.7481 2.15828 11.9006C2.15828 6.43018 6.59702 2.01543 12.0435 2.01543C14.6827 2.01543 17.178 3.04714 19.0255 4.89461C20.897 6.76608 21.9287 9.26138 21.9287 11.9006C21.9287 17.3471 17.4907 21.7862 12.0443 21.7862C10.2688 21.7862 8.51648 21.306 7.00491 20.3942L6.64501 20.1783L2.90207 21.162L3.90978 17.515Z" fill="#757D89"/>
<path fill-rule="evenodd" clip-rule="evenodd" d="M9.07183 6.92951C8.84921 6.43466 8.6149 6.42474 8.40311 6.41607C8.22993 6.40865 8.0316 6.40911 7.83362 6.40911C7.63552 6.40911 7.31351 6.48353 7.04128 6.7809C6.76882 7.07828 6.00105 7.79712 6.00105 9.25914C6.00105 10.7213 7.06602 12.1341 7.21446 12.3325C7.36306 12.5307 9.27027 15.6268 12.2907 16.818C14.801 17.8079 15.3119 17.611 15.8567 17.5615C16.4016 17.5119 17.6149 16.8428 17.8625 16.1488C18.1102 15.455 18.1102 14.8603 18.0359 14.736C17.9616 14.6122 17.7635 14.5379 17.4663 14.3893C17.169 14.2407 15.7081 13.5217 15.4356 13.4226C15.1632 13.3236 14.9651 13.274 14.767 13.5715C14.5688 13.8687 13.9997 14.5379 13.8263 14.736C13.6529 14.9346 13.4796 14.9594 13.1824 14.8108C12.8852 14.6617 11.9281 14.3483 10.7927 13.3359C9.90927 12.5483 9.31286 11.5756 9.13945 11.2781C8.9661 10.9809 9.12092 10.8199 9.26998 10.6718C9.40342 10.5386 9.56719 10.3249 9.71579 10.1514C9.86405 9.97787 9.91361 9.85401 10.0127 9.65586C10.1117 9.45741 10.0622 9.28389 9.98791 9.13529C9.91361 8.98669 9.33607 7.51708 9.07183 6.92951Z" fill="white"/>
</svg>
