<svg width="24" height="24" viewBox="0 0 24 24" fill="none" xmlns="http://www.w3.org/2000/svg">
<g clip-path="url(#clip0_3199_50960)">
<path d="M12.0003 4.19995C16.2906 4.19995 19.8638 6.62895 22.666 11.354L22.886 11.733L22.931 11.833L22.961 11.916L22.975 11.971L22.989 12.053L23 12.153V12.263L22.986 12.374C22.9794 12.4111 22.9707 12.4478 22.96 12.484L22.921 12.592L22.885 12.667L22.869 12.697C20.1048 17.533 16.5686 20.077 12.3134 20.196L12.0003 20.2C7.60407 20.2 3.96286 17.651 1.13169 12.696C1.04539 12.5449 1 12.3739 1 12.2C1 12.026 1.04539 11.855 1.13169 11.704C3.96286 6.74895 7.60407 4.19995 12.0003 4.19995ZM12.0003 9.19995C11.2046 9.19995 10.4415 9.51602 9.87889 10.0786C9.31625 10.6412 9.00016 11.4043 9.00016 12.2C9.00016 12.9956 9.31625 13.7587 9.87889 14.3213C10.4415 14.8839 11.2046 15.2 12.0003 15.2C12.796 15.2 13.5591 14.8839 14.1218 14.3213C14.6844 13.7587 15.0005 12.9956 15.0005 12.2C15.0005 11.4043 14.6844 10.6412 14.1218 10.0786C13.5591 9.51602 12.796 9.19995 12.0003 9.19995Z" fill="#757D89"/>
<path d="M11 12C11 12.2652 11.1054 12.5196 11.2929 12.7071C11.4804 12.8946 11.7348 13 12 13C12.2652 13 12.5196 12.8946 12.7071 12.7071C12.8946 12.5196 13 12.2652 13 12C13 11.7348 12.8946 11.4804 12.7071 11.2929C12.5196 11.1054 12.2652 11 12 11C11.7348 11 11.4804 11.1054 11.2929 11.2929C11.1054 11.4804 11 11.7348 11 12Z" fill="#757D89"/>
</g>
<defs>
<clipPath id="clip0_3199_50960">
<rect width="24" height="24" fill="white"/>
</clipPath>
</defs>
</svg>
