<svg width="270" height="36" viewBox="0 0 270 36" fill="none" xmlns="http://www.w3.org/2000/svg">
<path d="M1.0114 13.8527V10.5758C1.4699 10.9938 1.9284 11.3107 2.3869 11.5265C2.99374 11.8232 3.7152 11.9715 4.55129 11.9715C5.67057 11.9715 6.55385 11.7085 7.20115 11.1826C7.90238 10.6297 8.32717 9.88129 8.47551 8.93732H3.23647V6.42905H8.45528C8.29346 5.60645 7.91587 4.93893 7.32252 4.42648C6.66174 3.83313 5.76496 3.53645 4.6322 3.53645C3.82308 3.53645 3.08139 3.70502 2.40713 4.04215C1.9756 4.24443 1.51035 4.56134 1.0114 4.99287V1.67549C2.25204 1.02819 3.53989 0.704543 4.87493 0.704543C6.95167 0.704543 8.59688 1.30464 9.81055 2.50483C11.1051 3.77245 11.7524 5.51205 11.7524 7.72364C11.7524 9.94871 11.1119 11.7153 9.83078 13.0234C9.14303 13.7246 8.40808 14.1966 7.62593 14.4393C6.84379 14.6821 5.97399 14.8034 5.01653 14.8034C3.42526 14.8034 2.09022 14.4865 1.0114 13.8527ZM13.7357 14.5V5.47834H16.6485V9.05868L19.6018 5.47834H23.2226L19.3591 9.66552L23.4856 14.5H19.7232L16.6485 10.4949V14.5H13.7357ZM33.2612 6.63133C34.1647 7.53484 34.6165 8.65412 34.6165 9.98917C34.6165 11.3242 34.1647 12.4435 33.2612 13.347C32.2903 14.3179 30.9755 14.8034 29.3168 14.8034C27.6581 14.8034 26.3433 14.3179 25.3723 13.347C24.4688 12.4435 24.017 11.3242 24.017 9.98917C24.017 8.65412 24.4688 7.53484 25.3723 6.63133C26.3433 5.66039 27.6581 5.17492 29.3168 5.17492C30.9755 5.17492 32.2903 5.66039 33.2612 6.63133ZM30.9552 8.29002C30.5237 7.85849 29.9775 7.64273 29.3168 7.64273C28.656 7.64273 28.1098 7.85849 27.6783 8.29002C27.2333 8.73504 27.0108 9.30142 27.0108 9.98917C27.0108 10.6769 27.2333 11.2433 27.6783 11.6883C28.1098 12.1198 28.6627 12.3356 29.337 12.3356C29.9843 12.3356 30.5237 12.1198 30.9552 11.6883C31.4002 11.2433 31.6228 10.6769 31.6228 9.98917C31.6228 9.30142 31.4002 8.73504 30.9552 8.29002ZM43.2093 5.68062V8.33048C42.6564 7.87198 42.0225 7.64273 41.3078 7.64273C40.6336 7.64273 40.0807 7.85849 39.6491 8.29002C39.2041 8.73504 38.9816 9.30142 38.9816 9.98917C38.9816 10.6365 39.1839 11.1759 39.5885 11.6074C40.0335 12.0929 40.6201 12.3356 41.3483 12.3356C42.036 12.3356 42.6564 12.0996 43.2093 11.6276V14.2573C42.5485 14.6214 41.7798 14.8034 40.9033 14.8034C39.5008 14.8034 38.3343 14.3517 37.4038 13.4481C36.4599 12.5311 35.9879 11.3849 35.9879 10.0094C35.9879 8.57996 36.4868 7.39325 37.4847 6.44928C38.3883 5.59971 39.5345 5.17492 40.9235 5.17492C41.7326 5.17492 42.4945 5.34348 43.2093 5.68062ZM45.1443 5.47834H48.0572V10.6365L51.9005 5.47834H54.611V14.5H51.6982V9.26096L47.8549 14.5H45.1443V5.47834ZM63.6545 5.68062V8.33048C63.1016 7.87198 62.4678 7.64273 61.7531 7.64273C61.0788 7.64273 60.5259 7.85849 60.0944 8.29002C59.6494 8.73504 59.4268 9.30142 59.4268 9.98917C59.4268 10.6365 59.6291 11.1759 60.0337 11.6074C60.4787 12.0929 61.0653 12.3356 61.7935 12.3356C62.4813 12.3356 63.1016 12.0996 63.6545 11.6276V14.2573C62.9937 14.6214 62.225 14.8034 61.3485 14.8034C59.946 14.8034 58.7796 14.3517 57.8491 13.4481C56.9051 12.5311 56.4331 11.3849 56.4331 10.0094C56.4331 8.57996 56.9321 7.39325 57.93 6.44928C58.8335 5.59971 59.9797 5.17492 61.3687 5.17492C62.1778 5.17492 62.9398 5.34348 63.6545 5.68062ZM72.8207 7.82478H70.3934V14.5H67.4806V7.82478H65.0532V5.47834H72.8207V7.82478ZM76.7326 8.75526H80.6771C80.5692 8.32373 80.3737 7.97312 80.0905 7.70341C79.7264 7.36628 79.2679 7.19771 78.715 7.19771C78.1216 7.19771 77.6294 7.39325 77.2383 7.78432C76.9686 8.06751 76.8001 8.39116 76.7326 8.75526ZM83.3674 10.1914V10.4949H76.6315C76.6315 11.1152 76.8136 11.6276 77.1777 12.0322C77.5283 12.4098 78.0272 12.5986 78.6745 12.5986C79.16 12.5986 79.5511 12.5109 79.8477 12.3356C80.077 12.2142 80.286 11.9648 80.4748 11.5872L83.2258 11.8704C82.9156 12.8548 82.3358 13.61 81.4862 14.1359C80.7445 14.5809 79.7938 14.8034 78.6341 14.8034C77.0967 14.8034 75.8966 14.3719 75.0335 13.5088C74.13 12.6053 73.6782 11.4456 73.6782 10.0296C73.6782 8.60018 74.1367 7.41348 75.0537 6.46951C75.9168 5.60645 77.0698 5.17492 78.5127 5.17492C80.0365 5.17492 81.23 5.62668 82.093 6.53019C82.9426 7.43371 83.3674 8.65412 83.3674 10.1914ZM84.5381 14.5L86.1159 5.47834H88.4219L90.7683 10.4949L93.1147 5.47834H95.4207L96.9985 14.5H94.2071L93.4788 9.70598L91.2538 14.5H90.2828L88.0578 9.70598L87.3296 14.5H84.5381ZM105.536 6.48973V5.47834H108.449V14.5H105.536V13.4077C104.929 14.3382 104.039 14.8034 102.866 14.8034C101.477 14.8034 100.351 14.3449 99.4878 13.4279C98.6113 12.4974 98.173 11.3714 98.173 10.0499C98.173 8.55298 98.6382 7.33931 99.5687 6.40882C100.391 5.58622 101.436 5.17492 102.704 5.17492C103.945 5.17492 104.889 5.61319 105.536 6.48973ZM103.432 7.68318C102.798 7.68318 102.266 7.89895 101.834 8.33048C101.389 8.77549 101.167 9.32165 101.167 9.96894C101.167 10.6162 101.369 11.1556 101.774 11.5872C102.219 12.0592 102.792 12.2952 103.493 12.2952C104.086 12.2952 104.592 12.0861 105.01 11.6681C105.482 11.2231 105.718 10.6567 105.718 9.96894C105.718 9.28119 105.496 8.72829 105.05 8.31025C104.619 7.89221 104.08 7.68318 103.432 7.68318ZM116.399 5.47834H124.39V12.2749H125.725V17.0487H123.135V14.5H116.966V17.0487H114.377V12.2749C114.849 12.221 115.26 12.0322 115.611 11.7085C115.948 11.3984 116.163 11.0275 116.258 10.596C116.352 10.1645 116.399 9.62507 116.399 8.97777V5.47834ZM121.477 12.2749V7.70341H119.07V9.42279C119.07 10.0836 119.002 10.6365 118.867 11.0815C118.732 11.513 118.463 11.9108 118.058 12.2749H121.477ZM136.476 5.47834V14.5H133.563V7.82478H131.196V10.596C131.196 11.9715 130.899 12.9964 130.306 13.6707C129.726 14.3045 128.897 14.6214 127.818 14.6214C127.427 14.6214 127.049 14.5742 126.685 14.4798V12.1738C127.306 12.3491 127.771 12.2614 128.081 11.9108C128.324 11.5872 128.445 11.1084 128.445 10.4746V5.47834H136.476ZM137.969 14.5L140.559 11.2433C139.938 11.1354 139.419 10.8725 139.001 10.4544C138.543 10.0094 138.313 9.40256 138.313 8.6339C138.313 7.70341 138.59 6.96172 139.143 6.40882C139.776 5.7885 140.768 5.47834 142.116 5.47834H146.425V14.5H143.512V11.486H143.229L141.125 14.5H137.969ZM143.512 9.58461V7.54159H142.48C142.062 7.54159 141.759 7.61576 141.57 7.7641C141.341 7.95289 141.226 8.22934 141.226 8.59344C141.226 8.87663 141.321 9.11262 141.509 9.30142C141.725 9.49021 142.069 9.58461 142.541 9.58461H143.512ZM153.415 5.47834H156.328V10.6365L160.171 5.47834H162.882V14.5H159.969V9.26096L156.126 14.5H153.415V5.47834ZM165.149 14.5V5.47834H168.062V8.61367H171.318V5.47834H174.231V14.5H171.318V10.9601H168.062V14.5H165.149ZM181.646 5.47834H184.478V9.09914L187.047 5.47834H190.364L187.087 9.70598L190.728 14.5H187.168L184.478 10.596V14.5H181.646V10.596L178.955 14.5H175.395L179.036 9.70598L175.759 5.47834H179.077L181.646 9.09914V5.47834ZM194.308 8.75526H198.252C198.144 8.32373 197.949 7.97312 197.665 7.70341C197.301 7.36628 196.843 7.19771 196.29 7.19771C195.697 7.19771 195.204 7.39325 194.813 7.78432C194.544 8.06751 194.375 8.39116 194.308 8.75526ZM200.942 10.1914V10.4949H194.206C194.206 11.1152 194.388 11.6276 194.753 12.0322C195.103 12.4098 195.602 12.5986 196.249 12.5986C196.735 12.5986 197.126 12.5109 197.423 12.3356C197.652 12.2142 197.861 11.9648 198.05 11.5872L200.801 11.8704C200.491 12.8548 199.911 13.61 199.061 14.1359C198.319 14.5809 197.369 14.8034 196.209 14.8034C194.672 14.8034 193.471 14.3719 192.608 13.5088C191.705 12.6053 191.253 11.4456 191.253 10.0296C191.253 8.60018 191.712 7.41348 192.629 6.46951C193.492 5.60645 194.645 5.17492 196.088 5.17492C197.611 5.17492 198.805 5.62668 199.668 6.53019C200.518 7.43371 200.942 8.65412 200.942 10.1914ZM202.76 14.5V5.47834H205.673V8.61367H208.93V5.47834H211.843V14.5H208.93V10.9601H205.673V14.5H202.76ZM216.708 8.75526H220.653C220.545 8.32373 220.349 7.97312 220.066 7.70341C219.702 7.36628 219.244 7.19771 218.691 7.19771C218.097 7.19771 217.605 7.39325 217.214 7.78432C216.944 8.06751 216.776 8.39116 216.708 8.75526ZM223.343 10.1914V10.4949H216.607C216.607 11.1152 216.789 11.6276 217.153 12.0322C217.504 12.4098 218.003 12.5986 218.65 12.5986C219.136 12.5986 219.527 12.5109 219.824 12.3356C220.053 12.2142 220.262 11.9648 220.451 11.5872L223.202 11.8704C222.891 12.8548 222.312 13.61 221.462 14.1359C220.72 14.5809 219.77 14.8034 218.61 14.8034C217.073 14.8034 215.872 14.3719 215.009 13.5088C214.106 12.6053 213.654 11.4456 213.654 10.0296C213.654 8.60018 214.112 7.41348 215.029 6.46951C215.893 5.60645 217.046 5.17492 218.488 5.17492C220.012 5.17492 221.206 5.62668 222.069 6.53019C222.918 7.43371 223.343 8.65412 223.343 10.1914ZM228.074 13.4684V19.1322H225.161V5.47834H228.074V6.55042C228.775 5.63342 229.712 5.17492 230.886 5.17492C232.167 5.17492 233.232 5.59971 234.082 6.44928C234.985 7.35279 235.437 8.52601 235.437 9.96894C235.437 11.4254 234.958 12.6323 234.001 13.5897C233.192 14.3989 232.174 14.8034 230.946 14.8034C229.665 14.8034 228.708 14.3584 228.074 13.4684ZM230.178 7.68318C229.544 7.68318 229.004 7.90569 228.559 8.35071C228.101 8.80921 227.872 9.3621 227.872 10.0094C227.872 10.6162 228.087 11.1489 228.519 11.6074C228.978 12.0659 229.53 12.2952 230.178 12.2952C230.771 12.2952 231.29 12.0861 231.735 11.6681C232.207 11.2231 232.443 10.6499 232.443 9.94871C232.443 9.28793 232.214 8.74178 231.755 8.31025C231.31 7.89221 230.785 7.68318 230.178 7.68318ZM246.05 6.63133C246.953 7.53484 247.405 8.65412 247.405 9.98917C247.405 11.3242 246.953 12.4435 246.05 13.347C245.079 14.3179 243.764 14.8034 242.105 14.8034C240.447 14.8034 239.132 14.3179 238.161 13.347C237.257 12.4435 236.806 11.3242 236.806 9.98917C236.806 8.65412 237.257 7.53484 238.161 6.63133C239.132 5.66039 240.447 5.17492 242.105 5.17492C243.764 5.17492 245.079 5.66039 246.05 6.63133ZM243.744 8.29002C243.312 7.85849 242.766 7.64273 242.105 7.64273C241.444 7.64273 240.898 7.85849 240.467 8.29002C240.022 8.73504 239.799 9.30142 239.799 9.98917C239.799 10.6769 240.022 11.2433 240.467 11.6883C240.898 12.1198 241.451 12.3356 242.125 12.3356C242.773 12.3356 243.312 12.1198 243.744 11.6883C244.189 11.2433 244.411 10.6769 244.411 9.98917C244.411 9.30142 244.189 8.73504 243.744 8.29002ZM249.221 5.47834H254.056C255.094 5.47834 255.843 5.67387 256.301 6.06495C256.787 6.48299 257.029 7.0696 257.029 7.82478C257.029 8.43162 256.847 8.91709 256.483 9.28119C256.294 9.49696 256.045 9.65878 255.735 9.76666C256.261 9.87454 256.699 10.0903 257.05 10.414C257.441 10.805 257.636 11.3175 257.636 11.9513C257.636 12.666 257.414 13.2459 256.969 13.6909C256.429 14.2303 255.681 14.5 254.723 14.5H249.221V5.47834ZM252.134 9.07891H253.328C253.638 9.07891 253.881 9.01823 254.056 8.89686C254.258 8.74852 254.359 8.52601 254.359 8.22934C254.359 7.95963 254.272 7.75061 254.096 7.60227C253.934 7.4809 253.665 7.42022 253.287 7.42022H252.134V9.07891ZM252.134 12.5581H253.449C253.854 12.5581 254.143 12.4772 254.319 12.3154C254.508 12.1536 254.602 11.9176 254.602 11.6074C254.602 11.3512 254.508 11.1422 254.319 10.9803C254.13 10.8185 253.8 10.7376 253.328 10.7376H252.134V12.5581ZM7.90913 20.6806V23.3305C7.35623 22.872 6.72242 22.6427 6.0077 22.6427C5.33343 22.6427 4.78054 22.8585 4.34901 23.29C3.90399 23.735 3.68149 24.3014 3.68149 24.9892C3.68149 25.6365 3.88377 26.1759 4.28832 26.6074C4.73334 27.0929 5.31995 27.3356 6.04816 27.3356C6.73591 27.3356 7.35623 27.0996 7.90913 26.6276V29.2573C7.24835 29.6214 6.47968 29.8034 5.60314 29.8034C4.20067 29.8034 3.03419 29.3517 2.10371 28.4481C1.15974 27.5311 0.68775 26.3849 0.68775 25.0094C0.68775 23.58 1.18671 22.3932 2.18462 21.4493C3.08813 20.5997 4.23438 20.1749 5.62337 20.1749C6.43249 20.1749 7.19441 20.3435 7.90913 20.6806ZM17.0754 22.8248H14.648V29.5H11.7352V22.8248H9.30786V20.4783H17.0754V22.8248ZM21.2907 28.4684V34.1322H18.3779V20.4783H21.2907V21.5504C21.9919 20.6334 22.9292 20.1749 24.1024 20.1749C25.3835 20.1749 26.4488 20.5997 27.2984 21.4493C28.2019 22.3528 28.6537 23.526 28.6537 24.9689C28.6537 26.4254 28.1749 27.6323 27.2175 28.5897C26.4084 29.3989 25.3902 29.8034 24.1631 29.8034C22.882 29.8034 21.9245 29.3584 21.2907 28.4684ZM23.3944 22.6832C22.7606 22.6832 22.2212 22.9057 21.7762 23.3507C21.3177 23.8092 21.0884 24.3621 21.0884 25.0094C21.0884 25.6162 21.3042 26.1489 21.7357 26.6074C22.1942 27.0659 22.7471 27.2952 23.3944 27.2952C23.9878 27.2952 24.5069 27.0861 24.952 26.6681C25.4239 26.2231 25.6599 25.6499 25.6599 24.9487C25.6599 24.2879 25.4307 23.7418 24.9722 23.3102C24.5272 22.8922 24.0012 22.6832 23.3944 22.6832ZM39.2664 21.6313C40.1699 22.5348 40.6217 23.6541 40.6217 24.9892C40.6217 26.3242 40.1699 27.4435 39.2664 28.347C38.2954 29.3179 36.9806 29.8034 35.3219 29.8034C33.6632 29.8034 32.3484 29.3179 31.3775 28.347C30.474 27.4435 30.0222 26.3242 30.0222 24.9892C30.0222 23.6541 30.474 22.5348 31.3775 21.6313C32.3484 20.6604 33.6632 20.1749 35.3219 20.1749C36.9806 20.1749 38.2954 20.6604 39.2664 21.6313ZM36.9604 23.29C36.5289 22.8585 35.9827 22.6427 35.3219 22.6427C34.6612 22.6427 34.115 22.8585 33.6835 23.29C33.2385 23.735 33.016 24.3014 33.016 24.9892C33.016 25.6769 33.2385 26.2433 33.6835 26.6883C34.115 27.1198 34.6679 27.3356 35.3422 27.3356C35.9895 27.3356 36.5289 27.1198 36.9604 26.6883C37.4054 26.2433 37.6279 25.6769 37.6279 24.9892C37.6279 24.3014 37.4054 23.735 36.9604 23.29ZM42.4381 20.4783H45.3509V25.6365L49.1942 20.4783H51.9047V29.5H48.9919V24.261L45.1486 29.5H42.4381V20.4783ZM60.9684 22.8248H58.5411V29.5H55.6283V22.8248H53.2009V20.4783H60.9684V22.8248ZM64.8803 23.7553H68.8248C68.7169 23.3237 68.5214 22.9731 68.2382 22.7034C67.8741 22.3663 67.4156 22.1977 66.8627 22.1977C66.2693 22.1977 65.7771 22.3932 65.386 22.7843C65.1163 23.0675 64.9478 23.3912 64.8803 23.7553ZM71.5151 25.1914V25.4949H64.7792C64.7792 26.1152 64.9612 26.6276 65.3253 27.0322C65.676 27.4098 66.1749 27.5986 66.8222 27.5986C67.3077 27.5986 67.6988 27.5109 67.9954 27.3356C68.2247 27.2142 68.4337 26.9648 68.6225 26.5872L71.3735 26.8704C71.0633 27.8548 70.4835 28.61 69.6339 29.1359C68.8922 29.5809 67.9415 29.8034 66.7818 29.8034C65.2444 29.8034 64.0442 29.3719 63.1812 28.5088C62.2777 27.6053 61.8259 26.4456 61.8259 25.0296C61.8259 23.6002 62.2844 22.4135 63.2014 21.4695C64.0645 20.6064 65.2175 20.1749 66.6604 20.1749C68.1842 20.1749 69.3777 20.6267 70.2407 21.5302C71.0903 22.4337 71.5151 23.6541 71.5151 25.1914ZM82.1525 20.4783V29.5H79.2396V22.8248H76.873V25.596C76.873 26.9715 76.5763 27.9964 75.9829 28.6707C75.4031 29.3045 74.5737 29.6214 73.4949 29.6214C73.1038 29.6214 72.7262 29.5742 72.3621 29.4798V27.1738C72.9825 27.3491 73.4477 27.2614 73.7579 26.9108C74.0006 26.5872 74.122 26.1084 74.122 25.4746V20.4783H82.1525ZM87.3278 23.5732H89.472C90.5373 23.5732 91.3532 23.8564 91.9196 24.4228C92.405 24.9083 92.6478 25.5893 92.6478 26.4658C92.6478 27.4367 92.3781 28.1852 91.8386 28.7111C91.2992 29.237 90.4699 29.5 89.3506 29.5H84.415V20.4783H87.3278V23.5732ZM87.3278 27.4367H88.5213C88.9393 27.4367 89.236 27.3558 89.4113 27.194C89.6001 27.0322 89.6945 26.8029 89.6945 26.5063C89.6945 26.2231 89.6001 26.0073 89.4113 25.859C89.2225 25.7106 88.9326 25.6365 88.5415 25.6365H87.3278V27.4367ZM94.2722 29.5V20.4783H97.185V23.6137H100.442V20.4783H103.355V29.5H100.442V25.9601H97.185V29.5H94.2722ZM114.41 21.6313C115.314 22.5348 115.765 23.6541 115.765 24.9892C115.765 26.3242 115.314 27.4435 114.41 28.347C113.439 29.3179 112.124 29.8034 110.466 29.8034C108.807 29.8034 107.492 29.3179 106.521 28.347C105.618 27.4435 105.166 26.3242 105.166 24.9892C105.166 23.6541 105.618 22.5348 106.521 21.6313C107.492 20.6604 108.807 20.1749 110.466 20.1749C112.124 20.1749 113.439 20.6604 114.41 21.6313ZM112.104 23.29C111.673 22.8585 111.126 22.6427 110.466 22.6427C109.805 22.6427 109.259 22.8585 108.827 23.29C108.382 23.735 108.16 24.3014 108.16 24.9892C108.16 25.6769 108.382 26.2433 108.827 26.6883C109.259 27.1198 109.812 27.3356 110.486 27.3356C111.133 27.3356 111.673 27.1198 112.104 26.6883C112.549 26.2433 112.772 25.6769 112.772 24.9892C112.772 24.3014 112.549 23.735 112.104 23.29ZM117.582 20.4783H120.495V25.6365L124.338 20.4783H127.048V29.5H124.136V24.261L120.292 29.5H117.582V20.4783ZM123.954 16.0484L125.976 16.8373C125.72 17.5925 125.289 18.1656 124.682 18.5567C124.102 18.9343 123.313 19.1231 122.315 19.1231C121.317 19.1231 120.528 18.9343 119.948 18.5567C119.342 18.1656 118.91 17.5925 118.654 16.8373L120.677 16.0484C120.757 16.4395 120.933 16.7497 121.203 16.9789C121.486 17.2216 121.857 17.343 122.315 17.343C122.774 17.343 123.144 17.2216 123.428 16.9789C123.697 16.7497 123.873 16.4395 123.954 16.0484ZM142.836 21.6313C143.739 22.5348 144.191 23.6541 144.191 24.9892C144.191 26.3242 143.739 27.4435 142.836 28.347C141.865 29.3179 140.55 29.8034 138.891 29.8034C137.233 29.8034 135.918 29.3179 134.947 28.347C134.043 27.4435 133.592 26.3242 133.592 24.9892C133.592 23.6541 134.043 22.5348 134.947 21.6313C135.918 20.6604 137.233 20.1749 138.891 20.1749C140.55 20.1749 141.865 20.6604 142.836 21.6313ZM140.53 23.29C140.098 22.8585 139.552 22.6427 138.891 22.6427C138.231 22.6427 137.684 22.8585 137.253 23.29C136.808 23.735 136.585 24.3014 136.585 24.9892C136.585 25.6769 136.808 26.2433 137.253 26.6883C137.684 27.1198 138.237 27.3356 138.912 27.3356C139.559 27.3356 140.098 27.1198 140.53 26.6883C140.975 26.2433 141.197 25.6769 141.197 24.9892C141.197 24.3014 140.975 23.735 140.53 23.29ZM152.804 22.8248H150.377V29.5H147.464V22.8248H145.037V20.4783H152.804V22.8248ZM157.019 28.4684V34.1322H154.107V20.4783H157.019V21.5504C157.721 20.6334 158.658 20.1749 159.831 20.1749C161.112 20.1749 162.178 20.5997 163.027 21.4493C163.931 22.3528 164.382 23.526 164.382 24.9689C164.382 26.4254 163.904 27.6323 162.946 28.5897C162.137 29.3989 161.119 29.8034 159.892 29.8034C158.611 29.8034 157.653 29.3584 157.019 28.4684ZM159.123 22.6832C158.489 22.6832 157.95 22.9057 157.505 23.3507C157.046 23.8092 156.817 24.3621 156.817 25.0094C156.817 25.6162 157.033 26.1489 157.464 26.6074C157.923 27.0659 158.476 27.2952 159.123 27.2952C159.716 27.2952 160.236 27.0861 160.681 26.6681C161.153 26.2231 161.389 25.6499 161.389 24.9487C161.389 24.2879 161.159 23.7418 160.701 23.3102C160.256 22.8922 159.73 22.6832 159.123 22.6832ZM173.114 21.4897V20.4783H176.027V29.5H173.114V28.4077C172.507 29.3382 171.617 29.8034 170.444 29.8034C169.055 29.8034 167.929 29.3449 167.066 28.4279C166.189 27.4974 165.751 26.3714 165.751 25.0499C165.751 23.553 166.216 22.3393 167.147 21.4088C167.969 20.5862 169.014 20.1749 170.282 20.1749C171.523 20.1749 172.467 20.6132 173.114 21.4897ZM171.01 22.6832C170.376 22.6832 169.844 22.8989 169.412 23.3305C168.967 23.7755 168.745 24.3216 168.745 24.9689C168.745 25.6162 168.947 26.1556 169.351 26.5872C169.797 27.0592 170.37 27.2952 171.071 27.2952C171.664 27.2952 172.17 27.0861 172.588 26.6681C173.06 26.2231 173.296 25.6567 173.296 24.9689C173.296 24.2812 173.073 23.7283 172.628 23.3102C172.197 22.8922 171.657 22.6832 171.01 22.6832ZM185.062 20.6806V23.3305C184.509 22.872 183.875 22.6427 183.16 22.6427C182.486 22.6427 181.933 22.8585 181.502 23.29C181.057 23.735 180.834 24.3014 180.834 24.9892C180.834 25.6365 181.036 26.1759 181.441 26.6074C181.886 27.0929 182.472 27.3356 183.201 27.3356C183.888 27.3356 184.509 27.0996 185.062 26.6276V29.2573C184.401 29.6214 183.632 29.8034 182.756 29.8034C181.353 29.8034 180.187 29.3517 179.256 28.4481C178.312 27.5311 177.84 26.3849 177.84 25.0094C177.84 23.58 178.339 22.3932 179.337 21.4493C180.241 20.5997 181.387 20.1749 182.776 20.1749C183.585 20.1749 184.347 20.3435 185.062 20.6806ZM196.014 20.4783V29.5H193.101V22.8248H190.734V25.596C190.734 26.9715 190.437 27.9964 189.844 28.6707C189.264 29.3045 188.435 29.6214 187.356 29.6214C186.965 29.6214 186.587 29.5742 186.223 29.4798V27.1738C186.844 27.3491 187.309 27.2614 187.619 26.9108C187.862 26.5872 187.983 26.1084 187.983 25.4746V20.4783H196.014ZM198.276 20.4783H201.189V25.6365L205.032 20.4783H207.743V29.5H204.83V24.261L200.987 29.5H198.276V20.4783Z" fill="#2C2C2C"/>
<circle cx="214.495" cy="25.4951" r="4.4951" fill="#FF6600"/>
</svg>
