<svg width="1110" height="285" viewBox="0 0 1110 285" fill="none" xmlns="http://www.w3.org/2000/svg">
<g clip-path="url(#clip0_2233_22841)">
<path fill-rule="evenodd" clip-rule="evenodd" d="M1009.76 165.75C1009.76 179.43 1012.43 185.122 1014.39 187.709C1015.36 189.132 1020.96 196.214 1035.56 196.214C1048.46 196.214 1054.3 190.781 1056.5 187.709C1060.4 182.502 1061.36 174.74 1061.36 165.75C1061.36 152.523 1059.16 146.637 1056.73 143.339C1054.3 140.266 1048.7 135.318 1035.56 135.318C1022.43 135.318 1016.83 140.266 1014.39 143.339C1012.69 145.699 1009.76 151.132 1009.76 165.75ZM1035.56 101.782C1056 101.782 1078.87 102.493 1093 114.524C1109.07 128.462 1110.03 153.235 1110.03 165.75C1110.03 178.266 1109.07 203.038 1093 216.976C1078.9 229.007 1056 229.718 1035.56 229.718C1015.13 229.718 992.26 229.007 978.126 216.976C962.058 203.038 961.092 178.266 961.092 165.75C961.092 153.235 962.058 128.462 978.126 114.524C992.227 102.493 1015.13 101.782 1035.56 101.782ZM869.819 195.729H874.453C883.454 195.729 895.121 196.214 900.988 186.059C903.655 181.564 904.655 175.193 904.655 166.461C904.655 151.585 902.221 146.864 900.988 144.988C894.888 135.545 882.253 135.771 874.953 135.771H869.853V195.729H869.819ZM822.617 195.729V135.771H817.516C810.216 135.771 797.548 135.545 791.481 144.988C790.248 146.864 787.814 151.585 787.814 166.461C787.814 175.193 788.781 181.564 791.481 186.059C797.315 196.214 809.016 195.729 818.016 195.729H822.65H822.617ZM822.617 63.0388H869.819V103.173H900.721C924.556 103.173 936.99 112.389 943.29 122.285C951.558 135.286 952.291 154.852 952.291 166.914C952.291 182.728 950.824 199.254 941.59 211.77C931.123 225.934 914.589 228.295 899.721 228.295H869.786V268.429H822.583V228.295H792.648C777.814 228.295 761.246 225.934 750.812 211.77C741.578 199.254 740.112 182.728 740.112 166.914C740.112 154.884 740.845 135.286 749.112 122.285C755.446 112.357 767.847 103.173 791.681 103.173H822.583V63.0388H822.617ZM728.444 228.295H680.741V180.594H638.405V228.295H590.703V103.173H638.405V147.09H680.741V103.173H728.444V228.295ZM576.102 228.425H528.399L530.832 163.389C530.832 161.514 530.832 159.605 528.899 159.605C527.432 159.605 526.232 161.481 524.532 163.389L478.796 218.852C470.762 228.522 465.162 229.718 454.694 229.718C444.227 229.718 427.46 227.842 427.46 206.11V63.2005C444.227 74.3901 460.095 73.8727 475.162 63.2005L472.729 168.078C472.729 170.213 472.962 171.636 474.929 171.636C476.896 171.636 478.329 169.275 479.296 168.078L526.032 111.193C529.932 106.471 533.833 101.75 548.433 101.75C575.668 101.75 576.168 120.41 576.168 126.781V228.425H576.102ZM315.486 165.75C315.486 179.43 318.153 185.122 320.12 187.709C321.086 189.132 326.687 196.214 341.288 196.214C354.188 196.214 360.022 190.781 362.222 187.709C366.123 182.502 367.089 174.74 367.089 165.75C367.089 152.523 364.889 146.637 362.456 143.339C360.022 140.266 354.422 135.318 341.288 135.318C328.154 135.318 322.553 140.266 320.12 143.339C318.42 145.699 315.486 151.132 315.486 165.75ZM341.288 101.782C361.722 101.782 384.59 102.493 398.724 114.524C414.792 128.462 415.759 153.235 415.759 165.75C415.759 178.266 414.792 203.038 398.724 216.976C384.624 229.007 361.722 229.718 341.288 229.718C320.853 229.718 297.985 229.007 283.851 216.976C267.783 203.038 266.817 178.266 266.817 165.75C266.817 153.235 267.783 128.462 283.851 114.524C297.952 102.493 320.853 101.782 341.288 101.782ZM167.277 149.451H202.579C209.38 149.451 210.38 145.214 210.38 142.853C210.38 139.555 208.68 135.771 201.613 134.348C197.712 133.637 191.379 133.41 188.945 133.41C183.345 133.41 175.811 133.637 172.411 135.545C167.544 138.132 166.811 143.112 167.311 149.483L167.277 149.451ZM253.449 228.295H171.911C152.676 228.295 136.375 228.295 126.175 211.996C120.574 203.038 119.608 189.811 119.608 167.141C119.608 144.47 118.374 125.584 130.075 114.039C142.009 102.235 166.577 101.75 190.912 101.75C216.947 101.75 233.981 102.235 244.215 110.255C256.616 119.925 258.083 138.585 258.083 152.264C258.083 160.285 257.583 169.501 250.282 175.161C246.149 178.46 242.015 178.718 237.615 178.718H167.277C167.044 182.017 167.777 186.286 169.477 188.873C173.611 195.244 182.378 194.759 190.879 194.759H253.416V228.295H253.449Z" fill="#1D1D1B"/>
<path fill-rule="evenodd" clip-rule="evenodd" d="M475.795 39.5924C475.795 52.6254 464.894 63.2005 451.46 63.2005C438.026 63.2005 427.125 52.6254 427.125 39.5924C427.125 26.5595 438.026 15.9844 451.46 15.9844C464.894 15.9844 475.795 26.5595 475.795 39.5924Z" fill="#FF6600"/>
<path fill-rule="evenodd" clip-rule="evenodd" d="M71.4376 230.656H0V55.2449C0 45.737 0.333354 35.3236 8.83386 26.4301C14.5342 20.5766 24.3348 15.9844 35.0688 15.9844H199.745V69.345H86.3052C81.8716 69.345 76.2046 69.0216 73.3377 72.4173C71.4376 74.8751 71.4376 79.4674 71.4376 83.1541V230.656Z" fill="#1D1D1B"/>
<path d="M576.201 234.44H528.531V242.137H576.201V234.44Z" fill="#FF6600"/>
<path d="M576.201 260.732H528.531V268.429H576.201V260.732Z" fill="#FF6600"/>
<path d="M576.201 247.602H528.531V255.299H576.201V247.602Z" fill="#FF6600"/>
</g>
<defs>
<clipPath id="clip0_2233_22841">
<rect width="1110" height="252.444" fill="white" transform="translate(0 15.9844)"/>
</clipPath>
</defs>
</svg>
