<svg width="1110" height="253" viewBox="0 0 1110 253" fill="none" xmlns="http://www.w3.org/2000/svg">
<g clip-path="url(#clip0_3041_23157)">
<path fill-rule="evenodd" clip-rule="evenodd" d="M1009.76 149.766C1009.76 163.446 1012.43 169.137 1014.39 171.725C1015.36 173.148 1020.96 180.23 1035.56 180.23C1048.46 180.23 1054.3 174.797 1056.5 171.725C1060.4 166.518 1061.36 158.756 1061.36 149.766C1061.36 136.539 1059.16 130.653 1056.73 127.354C1054.3 124.282 1048.7 119.334 1035.56 119.334C1022.43 119.334 1016.83 124.282 1014.39 127.354C1012.69 129.715 1009.76 135.148 1009.76 149.766ZM1035.56 85.7978C1056 85.7978 1078.86 86.5092 1093 98.5396C1109.07 112.478 1110.03 137.25 1110.03 149.766C1110.03 162.281 1109.07 187.054 1093 200.992C1078.9 213.023 1056 213.734 1035.56 213.734C1015.13 213.734 992.259 213.023 978.125 200.992C962.057 187.054 961.091 162.281 961.091 149.766C961.091 137.25 962.057 112.478 978.125 98.5396C992.226 86.5092 1015.13 85.7978 1035.56 85.7978ZM869.818 179.745H874.452C883.453 179.745 895.12 180.23 900.987 170.075C903.654 165.58 904.654 159.209 904.654 150.477C904.654 135.601 902.22 130.879 900.987 129.004C894.887 119.561 882.253 119.787 874.952 119.787H871.852C870.747 119.787 869.852 120.682 869.852 121.787V179.712C869.852 179.73 869.837 179.745 869.818 179.745V179.745ZM822.649 179.745C822.631 179.745 822.616 179.73 822.616 179.712V121.787C822.616 120.682 821.72 119.787 820.616 119.787H817.515C810.215 119.787 797.547 119.561 791.48 129.004C790.247 130.879 787.814 135.601 787.814 150.477C787.814 159.209 788.78 165.58 791.48 170.075C797.314 180.23 809.015 179.745 818.015 179.745H822.649V179.745ZM822.616 47.0547H867.818C868.923 47.0547 869.818 47.9501 869.818 49.0547V85.1884C869.818 86.2929 870.714 87.1884 871.818 87.1884H900.72C924.555 87.1884 936.989 96.4052 943.29 106.301C951.557 119.302 952.29 138.867 952.29 150.93C952.29 166.744 950.823 183.27 941.589 195.785C931.122 209.95 914.588 212.311 899.72 212.311H871.785C870.681 212.311 869.785 213.207 869.785 214.311V250.445C869.785 251.549 868.89 252.445 867.785 252.445H824.582C823.478 252.445 822.582 251.549 822.582 250.445V214.311C822.582 213.207 821.687 212.311 820.582 212.311H792.647C777.813 212.311 761.245 209.95 750.811 195.785C741.577 183.27 740.111 166.744 740.111 150.93C740.111 138.9 740.844 119.302 749.111 106.301C755.445 96.3729 767.846 87.1884 791.68 87.1884H820.582C821.687 87.1884 822.582 86.2929 822.582 85.1884V47.0881C822.582 47.0696 822.597 47.0547 822.616 47.0547V47.0547ZM728.443 210.311C728.443 211.416 727.548 212.311 726.443 212.311H682.74C681.636 212.311 680.74 211.416 680.74 210.311V166.61C680.74 165.505 679.845 164.61 678.74 164.61H640.405C639.3 164.61 638.405 165.505 638.405 166.61V210.311C638.405 211.416 637.509 212.311 636.405 212.311H592.702C591.597 212.311 590.702 211.416 590.702 210.311V89.1884C590.702 88.0838 591.597 87.1884 592.702 87.1884H636.405C637.509 87.1884 638.405 88.0838 638.405 89.1884V129.106C638.405 130.21 639.3 131.106 640.405 131.106H678.74C679.845 131.106 680.74 130.21 680.74 129.106V89.1884C680.74 88.0838 681.636 87.1884 682.74 87.1884H726.443C727.548 87.1884 728.443 88.0838 728.443 89.1884V210.311ZM576.101 212.44H530.474C529.34 212.44 528.433 211.499 528.476 210.366L530.831 147.405C530.831 145.529 530.831 143.621 528.898 143.621C527.431 143.621 526.231 145.497 524.531 147.405L478.795 202.868C470.761 212.537 465.161 213.734 454.694 213.734C444.226 213.734 427.459 211.858 427.459 190.126V50.9555C427.459 49.3577 429.249 48.394 430.629 49.1991C445.008 57.5871 458.721 57.3213 471.832 49.4009C473.239 48.5506 475.107 49.5513 475.069 51.1952L472.728 152.094C472.728 154.229 472.961 155.652 474.928 155.652C476.895 155.652 478.328 153.291 479.295 152.094L526.031 95.2086C529.931 90.487 533.832 85.7654 548.432 85.7654C575.667 85.7654 576.167 104.425 576.167 110.796V212.374C576.167 212.411 576.138 212.44 576.101 212.44V212.44ZM315.485 149.766C315.485 163.446 318.152 169.137 320.119 171.725C321.085 173.148 326.686 180.23 341.287 180.23C354.187 180.23 360.021 174.797 362.221 171.725C366.122 166.518 367.088 158.756 367.088 149.766C367.088 136.539 364.888 130.653 362.455 127.354C360.021 124.282 354.421 119.334 341.287 119.334C328.153 119.334 322.552 124.282 320.119 127.354C318.419 129.715 315.485 135.148 315.485 149.766ZM341.287 85.7978C361.721 85.7978 384.589 86.5092 398.723 98.5396C414.791 112.478 415.758 137.25 415.758 149.766C415.758 162.281 414.791 187.054 398.723 200.992C384.623 213.023 361.721 213.734 341.287 213.734C320.852 213.734 297.984 213.023 283.85 200.992C267.782 187.054 266.816 162.281 266.816 149.766C266.816 137.25 267.782 112.478 283.85 98.5396C297.951 86.5092 320.852 85.7978 341.287 85.7978ZM167.292 133.482C167.286 133.477 167.29 133.467 167.299 133.467H202.578C209.379 133.467 210.379 129.23 210.379 126.869C210.379 123.571 208.679 119.787 201.612 118.364C197.711 117.652 191.378 117.426 188.944 117.426C183.344 117.426 175.81 117.652 172.41 119.561C167.549 122.144 166.811 127.115 167.308 133.475C167.308 133.483 167.298 133.488 167.292 133.482V133.482ZM253.448 212.311H171.91C152.675 212.311 136.374 212.311 126.174 196.012C120.573 187.054 119.607 173.827 119.607 151.157C119.607 128.486 118.373 109.6 130.074 98.0545C142.008 86.2505 166.576 85.7654 190.911 85.7654C216.946 85.7654 233.98 86.2505 244.214 94.2708C256.615 103.94 258.082 122.6 258.082 136.28C258.082 144.3 257.582 153.517 250.281 159.177C246.148 162.475 242.014 162.734 237.614 162.734H169.14C168.09 162.734 167.21 163.547 167.244 164.596C167.339 167.517 168.083 170.768 169.476 172.889C173.61 179.26 182.377 178.775 190.878 178.775H251.415C252.519 178.775 253.415 179.67 253.415 180.775V212.278C253.415 212.296 253.43 212.311 253.448 212.311V212.311Z" fill="#1D1D1B"/>
<path fill-rule="evenodd" clip-rule="evenodd" d="M475.796 23.6081C475.796 36.641 464.895 47.2161 451.461 47.2161C438.027 47.2161 427.126 36.641 427.126 23.6081C427.126 10.5751 438.027 0 451.461 0C464.895 0 475.796 10.5751 475.796 23.6081Z" fill="#FF6600"/>
<path fill-rule="evenodd" clip-rule="evenodd" d="M71.4376 209.672C71.4376 210.776 70.5422 211.672 69.4376 211.672H2C0.895432 211.672 0 210.776 0 209.672V36.2605C0 26.7526 0.333354 16.3392 8.83386 7.44575C14.5342 1.59225 24.3348 -3 35.0688 -3H197.745C198.85 -3 199.745 -2.10457 199.745 -1V48.3607C199.745 49.4652 198.85 50.3607 197.745 50.3607H86.3052C81.8716 50.3607 76.2046 50.0373 73.3377 53.4329C71.4376 55.8908 71.4376 60.483 71.4376 64.1698V209.672Z" fill="#1D1D1B"/>
<path d="M574.201 218.455H530.531C529.427 218.455 528.531 219.351 528.531 220.455V224.152C528.531 225.257 529.427 226.152 530.531 226.152H574.201C575.305 226.152 576.201 225.257 576.201 224.152V220.455C576.201 219.351 575.305 218.455 574.201 218.455Z" fill="#FF6600"/>
<path d="M574.201 244.748H530.531C529.427 244.748 528.531 245.643 528.531 246.748V250.445C528.531 251.549 529.427 252.445 530.531 252.445H574.201C575.305 252.445 576.201 251.549 576.201 250.445V246.748C576.201 245.643 575.305 244.748 574.201 244.748Z" fill="#FF6600"/>
<path d="M574.201 231.617H530.531C529.427 231.617 528.531 232.513 528.531 233.617V237.314C528.531 238.419 529.427 239.314 530.531 239.314H574.201C575.305 239.314 576.201 238.419 576.201 237.314V233.617C576.201 232.513 575.305 231.617 574.201 231.617Z" fill="#FF6600"/>
</g>
<defs>
<clipPath id="clip0_3041_23157">
<rect width="1110" height="252.444" fill="white"/>
</clipPath>
</defs>
</svg>
