<svg width="141" height="36" viewBox="0 0 141 36" fill="none" xmlns="http://www.w3.org/2000/svg">
<g clip-path="url(#clip0_228_1579)">
<path fill-rule="evenodd" clip-rule="evenodd" d="M128.267 20.9844C128.267 22.7184 128.606 23.4399 128.855 23.7679C128.978 23.9482 129.69 24.846 131.544 24.846C133.183 24.846 133.924 24.1573 134.204 23.7679C134.699 23.1079 134.822 22.124 134.822 20.9844C134.822 19.3077 134.542 18.5616 134.233 18.1435C133.924 17.754 133.213 17.1268 131.544 17.1268C129.876 17.1268 129.165 17.754 128.855 18.1435C128.64 18.4427 128.267 19.1314 128.267 20.9844ZM131.544 12.8757C134.14 12.8757 137.045 12.9659 138.84 14.4909C140.881 16.2578 141.004 19.3979 141.004 20.9844C141.004 22.5708 140.881 25.711 138.84 27.4778C137.049 29.0028 134.14 29.093 131.544 29.093C128.949 29.093 126.044 29.0028 124.248 27.4778C122.207 25.711 122.085 22.5708 122.085 20.9844C122.085 19.3979 122.207 16.2578 124.248 14.4909C126.04 12.9659 128.949 12.8757 131.544 12.8757ZM110.49 24.7845H111.079C112.222 24.7845 113.704 24.846 114.45 23.5588C114.789 22.989 114.916 22.1814 114.916 21.0746C114.916 19.1888 114.606 18.5903 114.45 18.3526C113.675 17.1555 112.07 17.1842 111.143 17.1842H110.495V24.7845H110.49ZM104.494 24.7845V17.1842H103.847C102.919 17.1842 101.31 17.1555 100.539 18.3526C100.383 18.5903 100.074 19.1888 100.074 21.0746C100.074 22.1814 100.196 22.989 100.539 23.5588C101.28 24.846 102.767 24.7845 103.91 24.7845H104.499H104.494ZM104.494 7.96465H110.49V13.052H114.416C117.444 13.052 119.023 14.2203 119.823 15.4748C120.873 17.1227 120.967 19.6029 120.967 21.132C120.967 23.1366 120.78 25.2314 119.607 26.8178C118.278 28.6134 116.177 28.9126 114.289 28.9126H110.486V34H104.49V28.9126H100.688C98.8033 28.9126 96.6988 28.6134 95.3734 26.8178C94.2004 25.2314 94.0141 23.1366 94.0141 21.132C94.0141 19.607 94.1073 17.1227 95.1574 15.4748C95.962 14.2162 97.5372 13.052 100.565 13.052H104.49V7.96465H104.494ZM92.532 28.9126H86.4725V22.866H81.0947V28.9126H75.0351V13.052H81.0947V18.619H86.4725V13.052H92.532V28.9126ZM73.1804 28.929H67.1209L67.43 20.6851C67.43 20.4474 67.43 20.2055 67.1844 20.2055C66.9981 20.2055 66.8456 20.4433 66.6297 20.6851L60.82 27.7156C59.7994 28.9413 59.088 29.093 57.7584 29.093C56.4288 29.093 54.2988 28.8552 54.2988 26.1004V7.98514C56.4288 9.40354 58.4444 9.33795 60.3584 7.98514L60.0493 21.2795C60.0493 21.5501 60.0789 21.7305 60.3288 21.7305C60.5786 21.7305 60.7607 21.4312 60.8835 21.2795L66.8202 14.0687C67.3157 13.4702 67.8111 12.8716 69.6658 12.8716C73.1254 12.8716 73.1889 15.237 73.1889 16.0446V28.929H73.1804ZM40.0752 20.9844C40.0752 22.7184 40.414 23.4399 40.6638 23.7679C40.7866 23.9482 41.498 24.846 43.3527 24.846C44.9914 24.846 45.7325 24.1573 46.012 23.7679C46.5074 23.1079 46.6302 22.124 46.6302 20.9844C46.6302 19.3077 46.3507 18.5616 46.0416 18.1435C45.7325 17.754 45.0211 17.1268 43.3527 17.1268C41.6843 17.1268 40.9729 17.754 40.6638 18.1435C40.4478 18.4427 40.0752 19.1314 40.0752 20.9844ZM43.3527 12.8757C45.9484 12.8757 48.8533 12.9659 50.6487 14.4909C52.6897 16.2578 52.8125 19.3979 52.8125 20.9844C52.8125 22.5708 52.6897 25.711 50.6487 27.4778C48.8575 29.0028 45.9484 29.093 43.3527 29.093C40.757 29.093 37.8521 29.0028 36.0567 27.4778C34.0156 25.711 33.8928 22.5708 33.8928 20.9844C33.8928 19.3979 34.0156 16.2578 36.0567 14.4909C37.8479 12.9659 40.757 12.8757 43.3527 12.8757ZM21.2487 18.9183H25.733C26.5968 18.9183 26.7239 18.3812 26.7239 18.082C26.7239 17.6639 26.5079 17.1842 25.6102 17.0038C25.1147 16.9137 24.3102 16.885 24.0011 16.885C23.2897 16.885 22.3327 16.9137 21.9008 17.1555C21.2825 17.4835 21.1894 18.1148 21.2529 18.9224L21.2487 18.9183ZM32.1948 28.9126H21.8373C19.394 28.9126 17.3233 28.9126 16.0275 26.8465C15.3161 25.711 15.1933 24.0343 15.1933 21.1607C15.1933 18.287 15.0367 15.8929 16.523 14.4294C18.0389 12.9331 21.1597 12.8716 24.2509 12.8716C27.5581 12.8716 29.7219 12.9331 31.0219 13.9498C32.5971 15.1755 32.7834 17.5409 32.7834 19.2749C32.7834 20.2916 32.7199 21.4599 31.7925 22.1773C31.2675 22.5954 30.7424 22.6282 30.1834 22.6282H21.2487C21.219 23.0464 21.3122 23.5875 21.5281 23.9155C22.0532 24.723 23.1669 24.6615 24.2467 24.6615H32.1906V28.9126H32.1948Z" fill="#1D1D1B"/>
<path fill-rule="evenodd" clip-rule="evenodd" d="M60.4389 4.99257C60.4389 6.64463 59.0542 7.98514 57.3477 7.98514C55.6412 7.98514 54.2565 6.64463 54.2565 4.99257C54.2565 3.34051 55.6412 2 57.3477 2C59.0542 2 60.4389 3.34051 60.4389 4.99257Z" fill="#E66B1F"/>
<path d="M62.9203 3.25032H63.3564V4.55803H65.0968V3.25032H65.5372V6.41916H65.0968V4.92698H63.3564V6.41916H62.9203V3.25032Z" fill="#1D1D1B"/>
<path d="M68.2515 5.68126C68.2345 5.78375 68.2007 5.88213 68.1456 5.97642C68.0906 6.07071 68.0186 6.16089 67.9297 6.23468C67.8407 6.30847 67.7349 6.37406 67.6163 6.41916C67.4935 6.46425 67.3622 6.48885 67.214 6.48885C67.0531 6.48885 66.9049 6.46425 66.7694 6.41096C66.6339 6.35767 66.5153 6.28388 66.418 6.18139C66.3206 6.07891 66.2401 5.94772 66.1851 5.79605C66.13 5.64437 66.1004 5.45989 66.1004 5.24673C66.1004 5.10735 66.1173 4.98026 66.1469 4.86548C66.1808 4.7507 66.2232 4.64821 66.2782 4.55802C66.3333 4.46784 66.3968 4.38995 66.4645 4.32436C66.5323 4.25877 66.6127 4.20548 66.689 4.16448C66.7694 4.12349 66.8499 4.09069 66.9346 4.07019C67.0192 4.0497 67.0997 4.0374 67.1759 4.0374C67.3411 4.0374 67.4893 4.062 67.6248 4.10709C67.7603 4.15218 67.8746 4.22597 67.972 4.32436C68.0694 4.42274 68.1456 4.54163 68.2007 4.68921C68.2557 4.83678 68.2811 5.00486 68.2811 5.20163V5.3984H66.5365C66.5365 5.50909 66.5535 5.61157 66.5873 5.70176C66.6212 5.79195 66.6636 5.86984 66.7228 5.93543C66.7821 6.00102 66.8499 6.05021 66.9346 6.0871C67.015 6.124 67.1082 6.1404 67.214 6.1404C67.3199 6.1404 67.4088 6.124 67.4808 6.0953C67.5528 6.06661 67.6163 6.02971 67.6629 5.98462C67.7137 5.93953 67.7518 5.89033 67.7815 5.83704C67.8111 5.78375 67.8365 5.73046 67.8577 5.67716H68.2557L68.2515 5.68126ZM67.8661 5.08685C67.8661 4.97616 67.845 4.87368 67.8153 4.78759C67.7815 4.7015 67.7391 4.62771 67.6798 4.56622C67.6205 4.50473 67.5528 4.45964 67.4723 4.43094C67.3919 4.39815 67.303 4.38585 67.2056 4.38585C67.1082 4.38585 67.0277 4.40225 66.9473 4.43914C66.8668 4.47604 66.7991 4.52523 66.7398 4.58672C66.6805 4.64821 66.6339 4.722 66.5958 4.80809C66.5619 4.89418 66.5407 4.98846 66.5323 5.09095H67.8661V5.08685Z" fill="#1D1D1B"/>
<path d="M69.416 5.08686H69.6235C69.6785 5.08686 69.7378 5.07866 69.7971 5.06636C69.8564 5.05406 69.9114 5.03357 69.958 5.00487C70.0046 4.97617 70.0469 4.93928 70.0808 4.89419C70.1147 4.84909 70.1274 4.7958 70.1274 4.73431C70.1274 4.68922 70.1189 4.64412 70.0977 4.60313C70.0765 4.56213 70.0469 4.52524 70.0088 4.49244C69.9707 4.45965 69.9199 4.43505 69.8606 4.41456C69.8013 4.39406 69.7336 4.38586 69.6531 4.38586C69.6108 4.38586 69.5642 4.38996 69.5049 4.40226C69.4498 4.41456 69.3948 4.43505 69.3397 4.46375C69.2847 4.49654 69.2381 4.53754 69.1958 4.59493C69.1534 4.65232 69.128 4.72611 69.1153 4.8163H68.7342C68.7427 4.71381 68.7681 4.62362 68.7977 4.54164C68.8316 4.46375 68.8697 4.39406 68.9205 4.33667C68.9713 4.27927 69.0264 4.23008 69.0857 4.19319C69.145 4.15629 69.2127 4.1235 69.2762 4.0989C69.3398 4.0743 69.4075 4.05791 69.4753 4.04971C69.543 4.04151 69.6065 4.03331 69.6658 4.03331C69.7717 4.03331 69.8775 4.04561 69.9834 4.0743C70.0893 4.0989 70.1824 4.13989 70.2629 4.19319C70.3476 4.24648 70.4111 4.31617 70.4619 4.39816C70.5127 4.48015 70.5381 4.57443 70.5381 4.68512C70.5381 4.75481 70.5254 4.8163 70.5085 4.87369C70.4873 4.92698 70.4619 4.97617 70.428 5.01307C70.3941 5.05406 70.356 5.08686 70.3137 5.11555C70.2713 5.14425 70.2332 5.16885 70.1909 5.18524V5.19754C70.2332 5.20574 70.2798 5.21804 70.3306 5.24264C70.3814 5.26723 70.428 5.29593 70.4704 5.33692C70.5127 5.37792 70.5508 5.43121 70.5762 5.4927C70.6059 5.55829 70.6186 5.63618 70.6186 5.72637C70.6186 5.85755 70.5889 5.96823 70.5339 6.06252C70.4788 6.1568 70.4026 6.23469 70.3094 6.30028C70.2163 6.36178 70.1147 6.41097 69.9961 6.43966C69.8775 6.46836 69.7632 6.48476 69.6446 6.48476C69.4922 6.48476 69.3567 6.46426 69.2339 6.42737C69.1111 6.39047 69.0052 6.33718 68.9163 6.26749C68.8274 6.1978 68.7554 6.11581 68.7046 6.02152C68.6538 5.92724 68.6199 5.82065 68.6114 5.70177H69.0222C69.0306 5.78786 69.056 5.85755 69.0984 5.91494C69.1407 5.97233 69.1873 6.01742 69.2424 6.05022C69.2974 6.08302 69.3609 6.10761 69.4287 6.11991C69.4964 6.13631 69.5684 6.14041 69.6404 6.14041C69.831 6.14041 69.9707 6.10351 70.0638 6.02972C70.157 5.95593 70.2036 5.85755 70.2036 5.73457C70.2036 5.68127 70.1951 5.63208 70.1782 5.59109C70.1612 5.55009 70.1316 5.5132 70.0935 5.4845C70.0554 5.45581 70.0003 5.43121 69.9326 5.41891C69.8648 5.40251 69.7844 5.39431 69.687 5.39431C69.6658 5.39431 69.6446 5.39431 69.6235 5.39431C69.5981 5.39431 69.5726 5.39431 69.5515 5.39431C69.5261 5.39431 69.5049 5.39431 69.4795 5.39841C69.4541 5.39841 69.4329 5.39841 69.416 5.40251V5.07046V5.08686Z" fill="#1D1D1B"/>
<path d="M71.114 4.80399C71.114 4.66461 71.1479 4.54573 71.1945 4.44734C71.2453 4.34895 71.313 4.27107 71.3977 4.20957C71.4824 4.14808 71.584 4.10709 71.7026 4.07839C71.8212 4.0538 71.9482 4.0374 72.0879 4.0374C72.2023 4.0374 72.3166 4.0497 72.4267 4.07019C72.5368 4.09069 72.6342 4.13169 72.7189 4.18088C72.8036 4.23007 72.8713 4.29976 72.9221 4.37765C72.9729 4.45554 72.9983 4.55802 72.9983 4.67281V6.01741C72.9983 6.05431 73.0068 6.0871 73.028 6.1117C73.0492 6.1363 73.083 6.1527 73.1296 6.1527C73.1508 6.1527 73.172 6.1527 73.1931 6.1486C73.2143 6.1445 73.2397 6.1404 73.2609 6.1363V6.41096C73.227 6.41916 73.1931 6.42736 73.1593 6.43555C73.1254 6.44375 73.0873 6.44785 73.0407 6.44785C72.9687 6.44785 72.9094 6.44375 72.8586 6.43146C72.8078 6.41916 72.7654 6.40276 72.7316 6.37406C72.6977 6.34537 72.6681 6.31257 72.6511 6.27158C72.6342 6.23058 72.6172 6.17729 72.613 6.1158C72.5622 6.16909 72.5071 6.21829 72.4521 6.26338C72.3971 6.30847 72.3335 6.34947 72.2615 6.38226C72.1896 6.41506 72.1133 6.44375 72.0286 6.46015C71.944 6.47655 71.8466 6.48885 71.7365 6.48885C71.6433 6.48885 71.5544 6.47245 71.4697 6.44375C71.385 6.41506 71.3045 6.37406 71.2368 6.31667C71.169 6.25928 71.114 6.18959 71.0717 6.1076C71.0293 6.02561 71.0081 5.92723 71.0081 5.82064C71.0081 5.70176 71.0293 5.59927 71.0717 5.51319C71.114 5.4271 71.169 5.35331 71.2326 5.29592C71.3003 5.23853 71.3765 5.19343 71.4612 5.16064C71.5459 5.12784 71.6348 5.10735 71.7238 5.09915L72.3928 5.02126C72.4563 5.01306 72.5071 4.98846 72.541 4.94747C72.5749 4.90647 72.5961 4.84088 72.5961 4.7507C72.5961 4.61132 72.5495 4.51293 72.4563 4.45144C72.3632 4.38995 72.2277 4.36125 72.0498 4.36125C71.872 4.36125 71.7322 4.39815 71.6433 4.47194C71.5544 4.54573 71.5036 4.65641 71.4909 4.80399H71.1098H71.114ZM72.5961 5.24673C72.5622 5.27132 72.5241 5.28772 72.4733 5.30412C72.4267 5.32052 72.3716 5.33281 72.3124 5.34101C72.2531 5.34921 72.1938 5.36151 72.126 5.36971C72.0625 5.37791 71.9948 5.38611 71.9313 5.3943C71.855 5.4025 71.7873 5.4189 71.728 5.4394C71.6687 5.4599 71.6094 5.48039 71.5671 5.51319C71.5205 5.54188 71.4866 5.57878 71.4612 5.62387C71.4358 5.66487 71.4231 5.71816 71.4231 5.77555C71.4231 5.84114 71.4358 5.89853 71.457 5.95182C71.4782 6.00512 71.5078 6.04611 71.5459 6.07891C71.584 6.1117 71.6306 6.1404 71.6814 6.15679C71.7365 6.17319 71.7915 6.18139 71.8593 6.18139C71.8974 6.18139 71.944 6.17729 71.999 6.16909C72.0541 6.16089 72.1049 6.1445 72.1599 6.1281C72.215 6.1076 72.27 6.0871 72.3208 6.05431C72.3716 6.02561 72.4225 5.98872 72.4606 5.94772C72.5029 5.90673 72.5368 5.85754 72.5622 5.80425C72.5876 5.75095 72.6003 5.68946 72.6003 5.62387V5.25492L72.5961 5.24673Z" fill="#1D1D1B"/>
<path d="M73.697 4.11119H74.7133C75.0055 4.11119 75.2215 4.16448 75.3654 4.26697C75.5094 4.37355 75.5814 4.52523 75.5814 4.7261C75.5814 4.83269 75.556 4.92287 75.5009 4.99666C75.4459 5.07045 75.3781 5.13604 75.2892 5.18934C75.4162 5.23443 75.5136 5.30002 75.5899 5.38611C75.6661 5.4722 75.7 5.58288 75.7 5.72226C75.7 5.82884 75.683 5.92723 75.6449 6.01332C75.6068 6.09941 75.5517 6.17319 75.4755 6.23469C75.3993 6.29618 75.3019 6.34127 75.1876 6.37407C75.069 6.40686 74.9335 6.42326 74.7726 6.42326H73.6928V4.11529L73.697 4.11119ZM74.1078 5.08685H74.726C74.8658 5.08685 74.9716 5.06225 75.0521 5.00896C75.1325 4.95567 75.1706 4.87368 75.1706 4.763C75.1706 4.70151 75.1579 4.64821 75.1368 4.60312C75.1156 4.56213 75.0859 4.52523 75.0478 4.50063C75.0097 4.47604 74.9674 4.45554 74.9208 4.44734C74.8742 4.43504 74.8276 4.43094 74.7768 4.43094H74.1035V5.09095L74.1078 5.08685ZM74.1078 6.1035H74.7303C74.8403 6.1035 74.9293 6.09531 75.0013 6.07891C75.0732 6.06251 75.1325 6.03791 75.1749 6.00512C75.2172 5.97232 75.2469 5.93543 75.268 5.89034C75.285 5.84524 75.2934 5.79605 75.2934 5.73866C75.2934 5.68127 75.285 5.63207 75.268 5.58698C75.2511 5.54189 75.2215 5.50499 75.1749 5.4722C75.1325 5.4394 75.0732 5.4189 75.0013 5.40251C74.9293 5.38611 74.8403 5.37791 74.7303 5.37791H74.1078V6.1035Z" fill="#1D1D1B"/>
<path d="M76.242 4.11119H76.6527V5.88214H76.6612L77.8341 4.11119H78.3042V6.41916H77.8934V4.64821H77.8849L76.7162 6.41916H76.2462V4.11119H76.242Z" fill="#1D1D1B"/>
<path d="M80.8279 5.60748C80.8237 5.66488 80.811 5.72637 80.794 5.79196C80.7771 5.85755 80.7517 5.92314 80.7178 5.98873C80.6839 6.05432 80.6416 6.11581 80.5908 6.1773C80.54 6.23879 80.4765 6.29209 80.4045 6.33718C80.3325 6.38227 80.2436 6.42327 80.1462 6.44786C80.0445 6.47656 79.9344 6.48886 79.8074 6.48886C79.7354 6.48886 79.6634 6.48066 79.5872 6.46426C79.511 6.44786 79.4348 6.41917 79.3628 6.38227C79.2908 6.34538 79.2188 6.29208 79.1511 6.23059C79.0833 6.1691 79.0283 6.09531 78.9774 6.00103C78.9266 5.91084 78.8885 5.80426 78.8589 5.68537C78.8292 5.56649 78.8123 5.42711 78.8123 5.27133C78.8123 5.07866 78.8419 4.90648 78.897 4.75481C78.952 4.60313 79.0283 4.47195 79.1214 4.36536C79.2146 4.25878 79.3247 4.17679 79.4517 4.1194C79.5787 4.06201 79.71 4.03331 79.8455 4.03331C79.9683 4.03331 80.0784 4.04561 80.1758 4.0702C80.2732 4.0948 80.3537 4.1317 80.4256 4.17269C80.4976 4.21368 80.5569 4.26698 80.6077 4.32437C80.6585 4.38176 80.6966 4.43915 80.7263 4.50474C80.7559 4.56623 80.7813 4.63182 80.794 4.69741C80.811 4.763 80.8194 4.8245 80.8237 4.88189H80.4383C80.4172 4.72611 80.3621 4.60313 80.269 4.51294C80.1758 4.42275 80.0488 4.37766 79.8836 4.37766C79.7693 4.37766 79.6719 4.39816 79.5872 4.44325C79.5025 4.48834 79.4348 4.54984 79.3797 4.63182C79.3247 4.70971 79.2823 4.8081 79.2569 4.92288C79.2273 5.03767 79.2146 5.16065 79.2146 5.29593C79.2146 5.44761 79.2315 5.57879 79.2612 5.68947C79.2908 5.80016 79.3331 5.89034 79.3882 5.96003C79.4432 6.02972 79.511 6.08302 79.5914 6.11581C79.6719 6.14861 79.7608 6.165 79.8625 6.165C79.9344 6.165 80.0022 6.1527 80.0657 6.12811C80.1292 6.10351 80.1885 6.06662 80.2393 6.01742C80.2901 5.96823 80.3325 5.91084 80.3706 5.84115C80.4087 5.77146 80.4299 5.68947 80.4468 5.60338H80.8322L80.8279 5.60748Z" fill="#1D1D1B"/>
<path d="M81.2725 4.11119H81.6833V5.88214H81.6918L82.8647 4.11119H83.3347V6.41916H82.924V4.64821H82.9155L81.7468 6.41916H81.2768V4.11119H81.2725Z" fill="#1D1D1B"/>
<path d="M83.9826 4.11119H84.5797L85.2106 6.00512H85.2191L85.8585 4.11119H86.4217V6.41916H86.0406V4.55803H86.0321L85.4012 6.41916H85.0074L84.3764 4.55803H84.3679V6.41916H83.9826V4.11119Z" fill="#1D1D1B"/>
<path d="M87.0611 4.1112H87.4718V4.98028H88.1875C88.3187 4.98028 88.4331 4.99667 88.5347 5.02947C88.6363 5.06226 88.7252 5.11146 88.7972 5.17295C88.8692 5.23444 88.9243 5.31233 88.9624 5.39842C89.0005 5.4886 89.0174 5.58699 89.0174 5.69767C89.0174 5.80836 89.0005 5.91084 88.9624 5.99693C88.9243 6.08712 88.8692 6.16091 88.7972 6.2224C88.7252 6.28389 88.6363 6.33308 88.5347 6.36588C88.4331 6.39867 88.3145 6.41507 88.1875 6.41507H87.0611V4.1071V4.1112ZM87.4718 6.10351H88.107C88.179 6.10351 88.2467 6.09532 88.306 6.08302C88.3695 6.07072 88.4204 6.04612 88.4669 6.01333C88.5135 5.98053 88.5474 5.93954 88.5728 5.88625C88.5982 5.83295 88.6109 5.77146 88.6109 5.69767C88.6109 5.62388 88.5982 5.56649 88.5728 5.5132C88.5474 5.46401 88.5093 5.42301 88.4627 5.39022C88.4161 5.35742 88.3611 5.33283 88.2933 5.32053C88.2256 5.30413 88.1536 5.29593 88.0731 5.29593H87.4718V6.09942V6.10351ZM89.3435 4.1112H89.7542V6.41917H89.3435V4.1112Z" fill="#1D1D1B"/>
<path d="M90.3979 4.1112H90.8086V5.88214H90.8171L91.99 4.1112H92.4601V6.41916H92.0493V4.64822H92.0408L90.8721 6.41916H90.4021V4.1112H90.3979ZM91.0415 3.21342C91.0627 3.30361 91.1008 3.3774 91.1601 3.43069C91.2193 3.48399 91.3125 3.51268 91.4311 3.51268C91.5496 3.51268 91.6428 3.48809 91.7021 3.43479C91.7614 3.3815 91.8037 3.30771 91.8206 3.21342H92.2018C92.2018 3.29951 92.1806 3.3774 92.1425 3.44709C92.1044 3.51678 92.0535 3.57417 91.9858 3.62337C91.918 3.67256 91.8376 3.70945 91.7444 3.73815C91.6513 3.76685 91.5454 3.77914 91.4311 3.77914C91.3167 3.77914 91.2109 3.76685 91.1177 3.74225C91.0246 3.71765 90.9441 3.68076 90.8764 3.63156C90.8086 3.58237 90.7578 3.52498 90.7197 3.45529C90.6816 3.3856 90.6604 3.30771 90.6604 3.21752H91.0373L91.0415 3.21342Z" fill="#1D1D1B"/>
<path d="M95.0262 5.11965H95.8476C95.8307 4.88598 95.7714 4.70561 95.6613 4.57853C95.5555 4.45144 95.403 4.38585 95.2125 4.38585C95.1235 4.38585 95.0473 4.39815 94.9796 4.42275C94.9118 4.44735 94.8568 4.48424 94.8144 4.52523C94.7678 4.56623 94.734 4.61542 94.7043 4.66871C94.6789 4.72201 94.6577 4.7794 94.645 4.83269H94.2512C94.2682 4.69331 94.3105 4.57443 94.374 4.47604C94.4376 4.37766 94.5138 4.29157 94.6027 4.23008C94.6916 4.16859 94.789 4.11529 94.8991 4.0866C95.005 4.0538 95.1108 4.0415 95.2209 4.0415C95.3903 4.0415 95.5428 4.0702 95.674 4.13169C95.8053 4.19318 95.9154 4.27517 96.0086 4.38175C96.0975 4.48834 96.1652 4.61952 96.2118 4.7671C96.2584 4.91468 96.2838 5.07865 96.2838 5.25903C96.2838 5.4394 96.2584 5.60748 96.2118 5.75916C96.1652 5.91084 96.0975 6.04202 96.0086 6.1486C95.9196 6.25519 95.8095 6.34127 95.674 6.40276C95.5428 6.46426 95.3903 6.49295 95.2209 6.49295C95.0981 6.49295 94.9796 6.47655 94.8695 6.44376C94.7594 6.41096 94.662 6.36177 94.5773 6.29208C94.4926 6.22239 94.4164 6.1404 94.3571 6.03382C94.2978 5.92723 94.2512 5.80835 94.2216 5.66487H94.6408C94.6493 5.73456 94.6662 5.80015 94.7001 5.85754C94.7297 5.91493 94.7721 5.96823 94.8229 6.00922C94.8737 6.05022 94.9288 6.08301 94.9965 6.10761C95.0643 6.1322 95.132 6.1445 95.2082 6.1445C95.3183 6.1445 95.4115 6.124 95.4919 6.07891C95.5724 6.03382 95.6359 5.98053 95.691 5.91084C95.746 5.84115 95.7799 5.76736 95.8095 5.68127C95.8349 5.59518 95.8476 5.51319 95.8519 5.4353H95.0304V5.11965H95.0262Z" fill="#1D1D1B"/>
<path d="M98.3968 4.45554H97.4822L97.4652 5.00896C97.4567 5.28772 97.4356 5.52139 97.3975 5.70996C97.3636 5.89853 97.3128 6.05021 97.2535 6.1609C97.19 6.27568 97.118 6.35357 97.0291 6.40276C96.9401 6.45195 96.8427 6.47245 96.7284 6.47245C96.6861 6.47245 96.6522 6.46835 96.6226 6.45605C96.5929 6.44376 96.5675 6.43146 96.5506 6.41916V6.07071C96.6099 6.09121 96.6607 6.1035 96.703 6.1035C96.7327 6.1035 96.7623 6.0994 96.7919 6.08711C96.8216 6.07891 96.847 6.05841 96.8766 6.02971C96.9063 6.00102 96.9274 5.96002 96.9486 5.90673C96.9698 5.85344 96.991 5.78375 97.0079 5.70176C97.0248 5.61567 97.0375 5.51319 97.0502 5.39431C97.0629 5.27542 97.0672 5.12784 97.0756 4.96387L97.0968 4.11119H98.8118V6.41916H98.401V4.45554H98.3968Z" fill="#1D1D1B"/>
<path d="M101.484 5.68126C101.467 5.78375 101.433 5.88213 101.378 5.97642C101.323 6.07071 101.251 6.16089 101.162 6.23468C101.073 6.31257 100.967 6.37406 100.844 6.41916C100.722 6.46425 100.59 6.48885 100.442 6.48885C100.281 6.48885 100.133 6.46425 99.9974 6.41096C99.8619 6.35767 99.7434 6.28388 99.646 6.18139C99.5486 6.07891 99.4681 5.94772 99.4131 5.79605C99.358 5.64027 99.3284 5.45989 99.3284 5.24673C99.3284 5.10735 99.3453 4.98026 99.375 4.86548C99.4046 4.7507 99.4512 4.64821 99.502 4.55802C99.5528 4.46784 99.6206 4.38995 99.6926 4.32436C99.7645 4.25877 99.8408 4.20548 99.917 4.16448C99.9932 4.12349 100.078 4.09069 100.163 4.07019C100.247 4.0497 100.328 4.0374 100.404 4.0374C100.569 4.0374 100.717 4.062 100.853 4.10709C100.988 4.15218 101.103 4.22597 101.2 4.32436C101.297 4.42274 101.374 4.54163 101.429 4.68921C101.484 4.83678 101.509 5.00486 101.509 5.20163V5.3984H99.7646C99.7646 5.50909 99.7815 5.61157 99.8154 5.70176C99.845 5.79195 99.8916 5.86984 99.9509 5.93543C100.01 6.00102 100.078 6.05021 100.163 6.0871C100.247 6.124 100.34 6.1404 100.442 6.1404C100.544 6.1404 100.637 6.124 100.709 6.0953C100.781 6.06661 100.844 6.02971 100.891 5.98462C100.942 5.93953 100.98 5.89033 101.009 5.83704C101.039 5.78375 101.065 5.73046 101.086 5.67716H101.484V5.68126ZM101.098 5.08685C101.098 4.97616 101.077 4.87368 101.048 4.78759C101.014 4.7015 100.971 4.62771 100.912 4.56622C100.853 4.50473 100.785 4.45964 100.705 4.43094C100.624 4.39815 100.535 4.38585 100.438 4.38585C100.34 4.38585 100.26 4.40225 100.18 4.43914C100.099 4.47604 100.031 4.52523 99.972 4.58672C99.9128 4.64821 99.8662 4.722 99.8281 4.80809C99.79 4.89418 99.773 4.98846 99.7646 5.09095H101.098V5.08685Z" fill="#1D1D1B"/>
<path d="M102.03 4.11119H102.441V5.23033L103.648 4.11119H104.185L103.063 5.13194L104.202 6.42326H103.673L102.741 5.37381L102.441 5.61567V6.41916H102.03V4.11119Z" fill="#1D1D1B"/>
<path d="M105.21 4.45554H104.389V4.11119H106.442V4.45554H105.621V6.41916H105.21V4.45554Z" fill="#1D1D1B"/>
<path d="M106.874 4.11119H107.285V4.42685H107.293C107.319 4.37356 107.353 4.32436 107.395 4.27517C107.437 4.22598 107.484 4.18498 107.543 4.15219C107.603 4.11939 107.666 4.0907 107.742 4.0702C107.819 4.0497 107.903 4.0415 108.001 4.0415C108.128 4.0415 108.25 4.0661 108.369 4.11119C108.488 4.16039 108.589 4.23008 108.682 4.32436C108.776 4.41865 108.843 4.53753 108.898 4.68101C108.953 4.82449 108.979 4.98847 108.979 5.18114C108.979 5.41891 108.953 5.61978 108.903 5.78785C108.852 5.95183 108.784 6.09121 108.691 6.19369C108.598 6.29618 108.488 6.37407 108.361 6.42326C108.234 6.47245 108.085 6.49295 107.929 6.49295C107.848 6.49295 107.776 6.48475 107.708 6.46426C107.641 6.44376 107.577 6.41916 107.526 6.38637C107.471 6.35357 107.425 6.31668 107.387 6.27978C107.349 6.23879 107.319 6.20189 107.298 6.165H107.289V7.33743H106.878V4.11939L106.874 4.11119ZM107.277 5.27543C107.277 5.40251 107.289 5.51729 107.315 5.61978C107.34 5.72226 107.378 5.81655 107.433 5.89444C107.484 5.97233 107.552 6.03382 107.632 6.07481C107.713 6.11581 107.806 6.1404 107.916 6.1404C108.026 6.1404 108.128 6.1199 108.208 6.07481C108.289 6.02972 108.361 5.96823 108.411 5.89444C108.466 5.81655 108.505 5.72636 108.53 5.61978C108.555 5.51319 108.568 5.39841 108.568 5.27543C108.568 5.15244 108.555 5.02536 108.53 4.91468C108.505 4.80399 108.466 4.70971 108.411 4.63182C108.356 4.55393 108.289 4.49244 108.208 4.44735C108.128 4.40225 108.03 4.38175 107.916 4.38175C107.802 4.38175 107.713 4.40225 107.632 4.44735C107.552 4.49244 107.488 4.55393 107.433 4.63182C107.382 4.70971 107.34 4.80399 107.315 4.91468C107.289 5.02536 107.277 5.14425 107.277 5.27543Z" fill="#1D1D1B"/>
<path d="M111.553 5.26312C111.553 5.4517 111.528 5.62387 111.477 5.77555C111.426 5.92723 111.354 6.05431 111.257 6.16089C111.16 6.26748 111.045 6.34947 110.91 6.40686C110.774 6.46425 110.618 6.49295 110.444 6.49295C110.27 6.49295 110.114 6.46425 109.978 6.40686C109.843 6.34947 109.724 6.26748 109.631 6.16089C109.538 6.05431 109.462 5.92723 109.411 5.77555C109.36 5.62387 109.334 5.4517 109.334 5.26312C109.334 5.07455 109.36 4.90647 109.411 4.7548C109.462 4.60312 109.534 4.47604 109.631 4.36945C109.728 4.26287 109.843 4.18088 109.978 4.12349C110.114 4.0661 110.27 4.0374 110.444 4.0374C110.618 4.0374 110.774 4.0661 110.91 4.12349C111.045 4.18088 111.164 4.26287 111.257 4.36945C111.35 4.47604 111.426 4.60312 111.477 4.7548C111.528 4.90647 111.553 5.07455 111.553 5.26312ZM111.143 5.26312C111.143 5.13604 111.126 5.01716 111.096 4.91057C111.066 4.80399 111.024 4.7097 110.961 4.63181C110.901 4.55393 110.829 4.49243 110.74 4.45144C110.651 4.40635 110.554 4.38585 110.44 4.38585C110.325 4.38585 110.224 4.40635 110.139 4.45144C110.054 4.49653 109.978 4.55802 109.919 4.63181C109.86 4.7097 109.813 4.79989 109.783 4.91057C109.754 5.02126 109.737 5.13604 109.737 5.26312C109.737 5.3902 109.754 5.51319 109.783 5.61977C109.813 5.73046 109.86 5.82064 109.919 5.89853C109.978 5.97642 110.05 6.03791 110.139 6.07891C110.228 6.1199 110.325 6.1445 110.44 6.1445C110.554 6.1445 110.656 6.124 110.74 6.07891C110.829 6.03381 110.901 5.97232 110.961 5.89853C111.02 5.82064 111.066 5.72636 111.096 5.61977C111.126 5.51319 111.143 5.3902 111.143 5.26312Z" fill="#1D1D1B"/>
<path d="M112.053 4.11119H112.464V5.04176H113.577V4.11119H113.988V6.41916H113.577V5.38611H112.464V6.41916H112.053V4.11119Z" fill="#1D1D1B"/>
<path d="M114.632 4.11119H115.043V5.04176H116.156V4.11119H116.567V6.41916H116.156V5.38611H115.043V6.41916H114.632V4.11119Z" fill="#1D1D1B"/>
<path d="M117.211 4.1112H117.621V4.98028H118.337C118.468 4.98028 118.583 4.99667 118.684 5.02947C118.786 5.06226 118.875 5.11146 118.947 5.17295C119.019 5.23444 119.074 5.31233 119.112 5.39842C119.15 5.4886 119.167 5.58699 119.167 5.69767C119.167 5.80836 119.15 5.91084 119.112 5.99693C119.074 6.08712 119.019 6.16091 118.947 6.2224C118.875 6.28389 118.786 6.33308 118.684 6.36588C118.583 6.39867 118.464 6.41507 118.337 6.41507H117.211V4.1071V4.1112ZM117.621 6.10351H118.257C118.329 6.10351 118.396 6.09532 118.456 6.08302C118.519 6.07072 118.57 6.04612 118.616 6.01333C118.663 5.98053 118.697 5.93954 118.722 5.88625C118.748 5.83295 118.76 5.77146 118.76 5.69767C118.76 5.62388 118.748 5.56649 118.722 5.5132C118.697 5.46401 118.659 5.42301 118.612 5.39022C118.566 5.35742 118.511 5.33283 118.443 5.32053C118.375 5.30413 118.303 5.29593 118.223 5.29593H117.621V6.09942V6.10351ZM119.493 4.1112H119.904V6.41917H119.493V4.1112Z" fill="#1D1D1B"/>
<path d="M120.547 4.1112H120.958V5.88214H120.967L122.14 4.1112H122.61V6.41916H122.199V4.64822H122.19L121.022 6.41916H120.552V4.1112H120.547ZM121.191 3.21342C121.212 3.30361 121.25 3.3774 121.31 3.43069C121.369 3.48399 121.462 3.51268 121.581 3.51268C121.699 3.51268 121.792 3.48809 121.852 3.43479C121.911 3.3815 121.953 3.30771 121.97 3.21342H122.351C122.351 3.29951 122.33 3.3774 122.292 3.44709C122.254 3.51678 122.203 3.57417 122.135 3.62337C122.068 3.67256 121.987 3.70945 121.894 3.73815C121.801 3.76275 121.695 3.77914 121.581 3.77914C121.466 3.77914 121.36 3.76685 121.267 3.74225C121.174 3.71765 121.094 3.68076 121.026 3.63156C120.958 3.58237 120.907 3.52498 120.869 3.45529C120.831 3.3856 120.81 3.30771 120.81 3.21752H121.187L121.191 3.21342Z" fill="#1D1D1B"/>
<path d="M126.26 5.05406H126.467L127.251 4.11119H127.746L126.81 5.20573L127.784 6.41916H127.28L126.476 5.36971H126.268V6.41916H125.857V5.36971H125.646L124.833 6.41916H124.329L125.311 5.20573L124.375 4.11119H124.871L125.646 5.05406H125.857V4.11119H126.268V5.05406H126.26Z" fill="#1D1D1B"/>
<path d="M127.924 4.11119H128.373L129.008 5.99282H129.016L129.652 4.11119H130.1L129.19 6.51345C129.143 6.63233 129.101 6.73891 129.063 6.8291C129.025 6.91929 128.987 6.99308 128.949 7.05867C128.911 7.12016 128.872 7.17345 128.834 7.21035C128.796 7.24724 128.754 7.28004 128.712 7.30053C128.665 7.32103 128.614 7.33743 128.559 7.34563C128.504 7.35382 128.441 7.35792 128.364 7.35792C128.305 7.35792 128.258 7.35792 128.225 7.34973C128.191 7.34563 128.161 7.33743 128.136 7.33333V6.97668C128.161 6.98488 128.199 6.99308 128.241 7.00128C128.284 7.00947 128.33 7.01357 128.377 7.01357C128.453 7.01357 128.512 6.99718 128.559 6.96028C128.606 6.92339 128.644 6.87419 128.665 6.8086L128.8 6.48475L127.915 4.11119H127.924Z" fill="#1D1D1B"/>
<path d="M130.473 4.11119H130.884V4.42685H130.892C130.918 4.37356 130.952 4.32436 130.994 4.27517C131.036 4.22598 131.083 4.18498 131.142 4.15219C131.201 4.11939 131.265 4.0907 131.341 4.0702C131.417 4.0497 131.502 4.0415 131.599 4.0415C131.726 4.0415 131.849 4.0661 131.968 4.11119C132.086 4.16039 132.188 4.23008 132.281 4.32436C132.374 4.41865 132.442 4.53753 132.497 4.68101C132.552 4.82449 132.578 4.98847 132.578 5.18114C132.578 5.41891 132.552 5.61978 132.501 5.78785C132.451 5.95183 132.383 6.09121 132.29 6.19369C132.196 6.29618 132.086 6.37407 131.959 6.42326C131.832 6.47245 131.684 6.49295 131.527 6.49295C131.447 6.49295 131.375 6.48475 131.307 6.46426C131.239 6.44376 131.176 6.41916 131.125 6.38637C131.07 6.35357 131.024 6.31668 130.985 6.27978C130.947 6.23879 130.918 6.20189 130.897 6.165H130.888V7.33743H130.477V4.11939L130.473 4.11119ZM130.875 5.27543C130.875 5.40251 130.888 5.51729 130.913 5.61978C130.939 5.72226 130.977 5.81655 131.032 5.89444C131.083 5.97233 131.151 6.03382 131.231 6.07481C131.311 6.11581 131.405 6.1404 131.515 6.1404C131.625 6.1404 131.726 6.1199 131.807 6.07481C131.887 6.02972 131.959 5.96823 132.01 5.89444C132.065 5.81655 132.103 5.72636 132.129 5.61978C132.154 5.51319 132.167 5.39841 132.167 5.27543C132.167 5.15244 132.154 5.02536 132.129 4.91468C132.103 4.80399 132.065 4.70971 132.01 4.63182C131.955 4.55393 131.887 4.49244 131.807 4.44735C131.726 4.40225 131.629 4.38175 131.515 4.38175C131.4 4.38175 131.311 4.40225 131.231 4.44735C131.151 4.49244 131.087 4.55393 131.032 4.63182C130.981 4.70971 130.939 4.80399 130.913 4.91468C130.888 5.02536 130.875 5.14425 130.875 5.27543Z" fill="#1D1D1B"/>
<path d="M133.073 4.11119H133.484V5.04176H134.597V4.11119H135.008V6.41916H134.597V5.38611H133.484V6.41916H133.073V4.11119Z" fill="#1D1D1B"/>
<path d="M135.648 4.80399C135.648 4.66461 135.681 4.54573 135.728 4.44734C135.779 4.34895 135.847 4.27107 135.931 4.20957C136.016 4.14808 136.118 4.10709 136.236 4.07839C136.355 4.0538 136.482 4.0374 136.622 4.0374C136.736 4.0374 136.85 4.0497 136.96 4.07019C137.07 4.09069 137.168 4.13169 137.252 4.18088C137.337 4.23007 137.405 4.29976 137.456 4.37765C137.507 4.45554 137.532 4.55802 137.532 4.67281V6.01741C137.532 6.05431 137.54 6.0871 137.562 6.1117C137.583 6.1363 137.617 6.1527 137.663 6.1527C137.684 6.1527 137.706 6.1527 137.727 6.1486C137.748 6.1445 137.773 6.1404 137.794 6.1363V6.41096C137.761 6.41916 137.727 6.42736 137.693 6.43555C137.659 6.44375 137.621 6.44785 137.574 6.44785C137.502 6.44785 137.443 6.44375 137.392 6.43146C137.341 6.41916 137.299 6.40276 137.265 6.37406C137.231 6.34537 137.202 6.31257 137.185 6.27158C137.168 6.23058 137.151 6.17729 137.147 6.1158C137.096 6.16909 137.041 6.21829 136.986 6.26338C136.931 6.30847 136.867 6.34947 136.795 6.38226C136.723 6.41506 136.647 6.44375 136.562 6.46015C136.478 6.47655 136.38 6.48885 136.27 6.48885C136.177 6.48885 136.088 6.47245 136.003 6.44375C135.919 6.41506 135.838 6.37406 135.77 6.31667C135.703 6.25928 135.648 6.18959 135.605 6.1076C135.563 6.02561 135.542 5.92723 135.542 5.82064C135.542 5.70176 135.563 5.59927 135.605 5.51319C135.648 5.4271 135.703 5.35331 135.766 5.29592C135.834 5.23853 135.91 5.19343 135.995 5.16064C136.08 5.12784 136.168 5.10735 136.257 5.09915L136.926 5.02126C136.99 5.01306 137.041 4.98846 137.075 4.94747C137.108 4.90647 137.13 4.84088 137.13 4.7507C137.13 4.61132 137.083 4.51293 136.99 4.45144C136.897 4.38995 136.761 4.36125 136.583 4.36125C136.406 4.36125 136.266 4.39815 136.177 4.47194C136.088 4.54573 136.037 4.65641 136.024 4.80399H135.643H135.648ZM137.125 5.24673C137.092 5.27132 137.053 5.28772 137.003 5.30412C136.956 5.32052 136.901 5.33281 136.842 5.34101C136.782 5.34921 136.723 5.36151 136.655 5.36971C136.592 5.37791 136.524 5.38611 136.461 5.3943C136.384 5.4025 136.317 5.4189 136.257 5.4394C136.198 5.4599 136.139 5.48039 136.096 5.51319C136.05 5.54188 136.016 5.57878 135.991 5.62387C135.965 5.66487 135.952 5.71816 135.952 5.77555C135.952 5.84114 135.965 5.89853 135.986 5.95182C136.008 6.00512 136.037 6.04611 136.075 6.07891C136.113 6.1117 136.16 6.1404 136.211 6.15679C136.266 6.17319 136.321 6.18139 136.389 6.18139C136.427 6.18139 136.473 6.17729 136.528 6.16909C136.583 6.16089 136.634 6.1445 136.689 6.1281C136.744 6.1076 136.799 6.0871 136.85 6.05431C136.901 6.02561 136.952 5.98872 136.99 5.94772C137.032 5.90673 137.066 5.85754 137.092 5.80425C137.117 5.75095 137.13 5.68946 137.13 5.62387V5.25492L137.125 5.24673Z" fill="#1D1D1B"/>
<path d="M139.836 4.45554H138.921L138.904 5.00896C138.895 5.28772 138.874 5.52139 138.836 5.70996C138.802 5.89853 138.751 6.05021 138.692 6.1609C138.629 6.27568 138.557 6.35357 138.468 6.40276C138.379 6.45195 138.281 6.47245 138.167 6.47245C138.125 6.47245 138.091 6.46835 138.061 6.45605C138.032 6.44376 138.006 6.43146 137.989 6.41916V6.07071C138.049 6.09121 138.099 6.1035 138.142 6.1035C138.171 6.1035 138.201 6.0994 138.231 6.08711C138.26 6.07891 138.286 6.05841 138.315 6.02971C138.345 6.00102 138.366 5.96002 138.387 5.90673C138.408 5.85344 138.43 5.78375 138.447 5.70176C138.464 5.61567 138.476 5.51319 138.489 5.39431C138.502 5.27542 138.506 5.12784 138.514 4.96387L138.536 4.11119H140.25V6.41916H139.84V4.45554H139.836Z" fill="#1D1D1B"/>
<path fill-rule="evenodd" clip-rule="evenodd" d="M9.07451 29.2119H0V6.97669C0 5.77146 0.0423449 4.45145 1.12214 3.32411C1.84624 2.58212 3.09118 2 4.45468 2H25.3731V8.76403H10.9631C10.3999 8.76403 9.68004 8.72303 9.31588 9.15347C9.07451 9.46503 9.07451 10.0471 9.07451 10.5145V29.2119Z" fill="#1D1D1B"/>
<path d="M73.1931 29.6915H67.1378V30.6672H73.1931V29.6915Z" fill="#E66B1F"/>
<path d="M73.1931 33.0243H67.1378V34H73.1931V33.0243Z" fill="#E66B1F"/>
<path d="M73.1931 31.36H67.1378V32.3356H73.1931V31.36Z" fill="#E66B1F"/>
</g>
<defs>
<clipPath id="clip0_228_1579">
<rect width="141" height="32" fill="white" transform="translate(0 2)"/>
</clipPath>
</defs>
</svg>
